<mxfile host="app.diagrams.net" agent="Mozilla/5.0 (X11; Linux x86_64; rv:128.0) Gecko/20100101 Firefox/128.0" version="25.0.3">
  <diagram name="Page-1" id="wnDVQPhdN0yrqGdEhT5-">
    <mxGraphModel dx="3390" dy="1877" grid="1" gridSize="10" guides="1" tooltips="1" connect="1" arrows="1" fold="1" page="1" pageScale="1" pageWidth="850" pageHeight="1100" math="0" shadow="0">
      <root>
        <mxCell id="0" />
        <mxCell id="1" parent="0" />
        <UserObject label="" mermaidData="{&#xa;  &quot;data&quot;: &quot;graph TD\n    A[Client Browser] --&gt;|HTTP/HTTPS Requests| B(Web Server - Apache)\n    B --&gt; C{PHP Application Layer}\n    \n    %% Authentication &amp; User Management Module\n    C --&gt;|Authentication| D[Login/Auth Module]\n    D --&gt;|OTP Verification| E[OTP Service API]\n    D --&gt;|Session Management| F[Session Handler]\n    \n    %% Core Application Modules\n    C --&gt;|Equipment Management| G[Equipment Module]\n    C --&gt;|Personnel Management| H[Personnel Module]\n    C --&gt;|Unit Management| I[Unit Module]\n    C --&gt;|Reporting| J[Reporting Module]\n    \n    %% Cross-verification Modules\n    G --&gt;|Verification| K[License Verification]\n    G --&gt;|Verification| L[Store Verification]\n    H --&gt;|Verification| M[Establishment Verification]\n    \n    %% Data Layer\n    G &amp; H &amp; I &amp; J &amp; D &amp; F --&gt;|Database Operations| N[(MySQL Database)]\n    \n    %% Modified Report Flow - Reports go to higher-level moderators via server\n    J --&gt;|Generate PDFs| O[PDF Generation Service]\n    J --&gt;|Digital Signatures| P[Signature Verification API]\n    J --&gt;|L1 Moderator| MOD1[Level 1 Moderator]\n    MOD1 --&gt;|L2 Moderator| MOD2[Level 2 Moderator]\n    MOD2 --&gt;|L3 Moderator| MOD3[Level 3 Moderator]\n    MOD3 --&gt;|L4 Moderator| MOD4[Level 4 Moderator]\n    MOD1 &amp; MOD2 &amp; MOD3 &amp; MOD4 --&gt;|Store Report Status| N\n    \n    %% Admin Functions\n    C --&gt;|System Administration| Q[Admin Module]\n    Q --&gt;|User Management| N\n    Q --&gt;|System Configuration| N\n    Q --&gt;|Audit Logs| N\n    \n    %% Caching Layer\n    C &lt;--&gt;|Caching| R[Server-side Cache]&quot;&#xa;}" id="FzjDU5e3YEK2CfJTqNCw-235">
          <mxCell style="shape=image;noLabel=1;verticalAlign=top;imageAspect=1;image=data:image/svg+xml,PHN2ZyBhcmlhLXJvbGVkZXNjcmlwdGlvbj0iZmxvd2NoYXJ0LXYyIiByb2xlPSJncmFwaGljcy1kb2N1bWVudCBkb2N1bWVudCIgdmlld0JveD0iMCAwIDI5ODQuMjQ1ODQ5NjA5Mzc1IDExODcuMDExOTYyODkwNjI1IiBzdHlsZT0ibWF4LXdpZHRoOiAyOTg0LjI0NTg0OTYwOTM3NXB4OyIgY2xhc3M9ImZsb3djaGFydCIgeG1sbnM9Imh0dHA6Ly93d3cudzMub3JnLzIwMDAvc3ZnIiB3aWR0aD0iMTAwJSIgaWQ9ImdlTWVybWFpZE91dHB1dC0xNzQwNjA4NTc5MDQ1Ij48c3R5bGU+I2dlTWVybWFpZE91dHB1dC0xNzQwNjA4NTc5MDQ1e2ZvbnQtZmFtaWx5OiJ0cmVidWNoZXQgbXMiLHZlcmRhbmEsYXJpYWwsc2Fucy1zZXJpZjtmb250LXNpemU6MTZweDtmaWxsOiMwMDAwMDA7fSNnZU1lcm1haWRPdXRwdXQtMTc0MDYwODU3OTA0NSAuZXJyb3ItaWNvbntmaWxsOiM1NTIyMjI7fSNnZU1lcm1haWRPdXRwdXQtMTc0MDYwODU3OTA0NSAuZXJyb3ItdGV4dHtmaWxsOiM1NTIyMjI7c3Ryb2tlOiM1NTIyMjI7fSNnZU1lcm1haWRPdXRwdXQtMTc0MDYwODU3OTA0NSAuZWRnZS10aGlja25lc3Mtbm9ybWFse3N0cm9rZS13aWR0aDoxcHg7fSNnZU1lcm1haWRPdXRwdXQtMTc0MDYwODU3OTA0NSAuZWRnZS10aGlja25lc3MtdGhpY2t7c3Ryb2tlLXdpZHRoOjMuNXB4O30jZ2VNZXJtYWlkT3V0cHV0LTE3NDA2MDg1NzkwNDUgLmVkZ2UtcGF0dGVybi1zb2xpZHtzdHJva2UtZGFzaGFycmF5OjA7fSNnZU1lcm1haWRPdXRwdXQtMTc0MDYwODU3OTA0NSAuZWRnZS10aGlja25lc3MtaW52aXNpYmxle3N0cm9rZS13aWR0aDowO2ZpbGw6bm9uZTt9I2dlTWVybWFpZE91dHB1dC0xNzQwNjA4NTc5MDQ1IC5lZGdlLXBhdHRlcm4tZGFzaGVke3N0cm9rZS1kYXNoYXJyYXk6Mzt9I2dlTWVybWFpZE91dHB1dC0xNzQwNjA4NTc5MDQ1IC5lZGdlLXBhdHRlcm4tZG90dGVke3N0cm9rZS1kYXNoYXJyYXk6Mjt9I2dlTWVybWFpZE91dHB1dC0xNzQwNjA4NTc5MDQ1IC5tYXJrZXJ7ZmlsbDojNjY2O3N0cm9rZTojNjY2O30jZ2VNZXJtYWlkT3V0cHV0LTE3NDA2MDg1NzkwNDUgLm1hcmtlci5jcm9zc3tzdHJva2U6IzY2Njt9I2dlTWVybWFpZE91dHB1dC0xNzQwNjA4NTc5MDQ1IHN2Z3tmb250LWZhbWlseToidHJlYnVjaGV0IG1zIix2ZXJkYW5hLGFyaWFsLHNhbnMtc2VyaWY7Zm9udC1zaXplOjE2cHg7fSNnZU1lcm1haWRPdXRwdXQtMTc0MDYwODU3OTA0NSBwe21hcmdpbjowO30jZ2VNZXJtYWlkT3V0cHV0LTE3NDA2MDg1NzkwNDUgLmxhYmVse2ZvbnQtZmFtaWx5OiJ0cmVidWNoZXQgbXMiLHZlcmRhbmEsYXJpYWwsc2Fucy1zZXJpZjtjb2xvcjojMDAwMDAwO30jZ2VNZXJtYWlkT3V0cHV0LTE3NDA2MDg1NzkwNDUgLmNsdXN0ZXItbGFiZWwgdGV4dHtmaWxsOiMzMzM7fSNnZU1lcm1haWRPdXRwdXQtMTc0MDYwODU3OTA0NSAuY2x1c3Rlci1sYWJlbCBzcGFue2NvbG9yOiMzMzM7fSNnZU1lcm1haWRPdXRwdXQtMTc0MDYwODU3OTA0NSAuY2x1c3Rlci1sYWJlbCBzcGFuIHB7YmFja2dyb3VuZC1jb2xvcjp0cmFuc3BhcmVudDt9I2dlTWVybWFpZE91dHB1dC0xNzQwNjA4NTc5MDQ1IC5sYWJlbCB0ZXh0LCNnZU1lcm1haWRPdXRwdXQtMTc0MDYwODU3OTA0NSBzcGFue2ZpbGw6IzAwMDAwMDtjb2xvcjojMDAwMDAwO30jZ2VNZXJtYWlkT3V0cHV0LTE3NDA2MDg1NzkwNDUgLm5vZGUgcmVjdCwjZ2VNZXJtYWlkT3V0cHV0LTE3NDA2MDg1NzkwNDUgLm5vZGUgY2lyY2xlLCNnZU1lcm1haWRPdXRwdXQtMTc0MDYwODU3OTA0NSAubm9kZSBlbGxpcHNlLCNnZU1lcm1haWRPdXRwdXQtMTc0MDYwODU3OTA0NSAubm9kZSBwb2x5Z29uLCNnZU1lcm1haWRPdXRwdXQtMTc0MDYwODU3OTA0NSAubm9kZSBwYXRoe2ZpbGw6I2VlZTtzdHJva2U6Izk5OTtzdHJva2Utd2lkdGg6MXB4O30jZ2VNZXJtYWlkT3V0cHV0LTE3NDA2MDg1NzkwNDUgLnJvdWdoLW5vZGUgLmxhYmVsIHRleHQsI2dlTWVybWFpZE91dHB1dC0xNzQwNjA4NTc5MDQ1IC5ub2RlIC5sYWJlbCB0ZXh0e3RleHQtYW5jaG9yOm1pZGRsZTt9I2dlTWVybWFpZE91dHB1dC0xNzQwNjA4NTc5MDQ1IC5ub2RlIC5rYXRleCBwYXRoe2ZpbGw6IzAwMDtzdHJva2U6IzAwMDtzdHJva2Utd2lkdGg6MXB4O30jZ2VNZXJtYWlkT3V0cHV0LTE3NDA2MDg1NzkwNDUgLm5vZGUgLmxhYmVse3RleHQtYWxpZ246Y2VudGVyO30jZ2VNZXJtYWlkT3V0cHV0LTE3NDA2MDg1NzkwNDUgLm5vZGUuY2xpY2thYmxle2N1cnNvcjpwb2ludGVyO30jZ2VNZXJtYWlkT3V0cHV0LTE3NDA2MDg1NzkwNDUgLmFycm93aGVhZFBhdGh7ZmlsbDojMzMzMzMzO30jZ2VNZXJtYWlkT3V0cHV0LTE3NDA2MDg1NzkwNDUgLmVkZ2VQYXRoIC5wYXRoe3N0cm9rZTojNjY2O3N0cm9rZS13aWR0aDoyLjBweDt9I2dlTWVybWFpZE91dHB1dC0xNzQwNjA4NTc5MDQ1IC5mbG93Y2hhcnQtbGlua3tzdHJva2U6IzY2NjtmaWxsOm5vbmU7fSNnZU1lcm1haWRPdXRwdXQtMTc0MDYwODU3OTA0NSAuZWRnZUxhYmVse2JhY2tncm91bmQtY29sb3I6d2hpdGU7dGV4dC1hbGlnbjpjZW50ZXI7fSNnZU1lcm1haWRPdXRwdXQtMTc0MDYwODU3OTA0NSAuZWRnZUxhYmVsIHB7YmFja2dyb3VuZC1jb2xvcjp3aGl0ZTt9I2dlTWVybWFpZE91dHB1dC0xNzQwNjA4NTc5MDQ1IC5lZGdlTGFiZWwgcmVjdHtvcGFjaXR5OjAuNTtiYWNrZ3JvdW5kLWNvbG9yOndoaXRlO2ZpbGw6d2hpdGU7fSNnZU1lcm1haWRPdXRwdXQtMTc0MDYwODU3OTA0NSAubGFiZWxCa2d7YmFja2dyb3VuZC1jb2xvcjpyZ2JhKDI1NSwgMjU1LCAyNTUsIDAuNSk7fSNnZU1lcm1haWRPdXRwdXQtMTc0MDYwODU3OTA0NSAuY2x1c3RlciByZWN0e2ZpbGw6aHNsKDAsIDAlLCA5OC45MjE1Njg2Mjc1JSk7c3Ryb2tlOiM3MDcwNzA7c3Ryb2tlLXdpZHRoOjFweDt9I2dlTWVybWFpZE91dHB1dC0xNzQwNjA4NTc5MDQ1IC5jbHVzdGVyIHRleHR7ZmlsbDojMzMzO30jZ2VNZXJtYWlkT3V0cHV0LTE3NDA2MDg1NzkwNDUgLmNsdXN0ZXIgc3Bhbntjb2xvcjojMzMzO30jZ2VNZXJtYWlkT3V0cHV0LTE3NDA2MDg1NzkwNDUgZGl2Lm1lcm1haWRUb29sdGlwe3Bvc2l0aW9uOmFic29sdXRlO3RleHQtYWxpZ246Y2VudGVyO21heC13aWR0aDoyMDBweDtwYWRkaW5nOjJweDtmb250LWZhbWlseToidHJlYnVjaGV0IG1zIix2ZXJkYW5hLGFyaWFsLHNhbnMtc2VyaWY7Zm9udC1zaXplOjEycHg7YmFja2dyb3VuZDpoc2woLTE2MCwgMCUsIDkzLjMzMzMzMzMzMzMlKTtib3JkZXI6MXB4IHNvbGlkICM3MDcwNzA7Ym9yZGVyLXJhZGl1czoycHg7cG9pbnRlci1ldmVudHM6bm9uZTt6LWluZGV4OjEwMDt9I2dlTWVybWFpZE91dHB1dC0xNzQwNjA4NTc5MDQ1IC5mbG93Y2hhcnRUaXRsZVRleHR7dGV4dC1hbmNob3I6bWlkZGxlO2ZvbnQtc2l6ZToxOHB4O2ZpbGw6IzAwMDAwMDt9I2dlTWVybWFpZE91dHB1dC0xNzQwNjA4NTc5MDQ1IDpyb290ey0tbWVybWFpZC1mb250LWZhbWlseToidHJlYnVjaGV0IG1zIix2ZXJkYW5hLGFyaWFsLHNhbnMtc2VyaWY7fTwvc3R5bGU+PGc+PG1hcmtlciBvcmllbnQ9ImF1dG8iIG1hcmtlckhlaWdodD0iOCIgbWFya2VyV2lkdGg9IjgiIG1hcmtlclVuaXRzPSJ1c2VyU3BhY2VPblVzZSIgcmVmWT0iNSIgcmVmWD0iNSIgdmlld0JveD0iMCAwIDEwIDEwIiBjbGFzcz0ibWFya2VyIGZsb3djaGFydC12MiIgaWQ9ImdlTWVybWFpZE91dHB1dC0xNzQwNjA4NTc5MDQ1X2Zsb3djaGFydC12Mi1wb2ludEVuZCI+PHBhdGggc3R5bGU9InN0cm9rZS13aWR0aDogMXB4OyBzdHJva2UtZGFzaGFycmF5OiAxcHgsIDBweDsiIGNsYXNzPSJhcnJvd01hcmtlclBhdGgiIGQ9Ik0gMCAwIEwgMTAgNSBMIDAgMTAgeiI+PC9wYXRoPjwvbWFya2VyPjxtYXJrZXIgb3JpZW50PSJhdXRvIiBtYXJrZXJIZWlnaHQ9IjgiIG1hcmtlcldpZHRoPSI4IiBtYXJrZXJVbml0cz0idXNlclNwYWNlT25Vc2UiIHJlZlk9IjUiIHJlZlg9IjQuNSIgdmlld0JveD0iMCAwIDEwIDEwIiBjbGFzcz0ibWFya2VyIGZsb3djaGFydC12MiIgaWQ9ImdlTWVybWFpZE91dHB1dC0xNzQwNjA4NTc5MDQ1X2Zsb3djaGFydC12Mi1wb2ludFN0YXJ0Ij48cGF0aCBzdHlsZT0ic3Ryb2tlLXdpZHRoOiAxcHg7IHN0cm9rZS1kYXNoYXJyYXk6IDFweCwgMHB4OyIgY2xhc3M9ImFycm93TWFya2VyUGF0aCIgZD0iTSAwIDUgTCAxMCAxMCBMIDEwIDAgeiI+PC9wYXRoPjwvbWFya2VyPjxtYXJrZXIgb3JpZW50PSJhdXRvIiBtYXJrZXJIZWlnaHQ9IjExIiBtYXJrZXJXaWR0aD0iMTEiIG1hcmtlclVuaXRzPSJ1c2VyU3BhY2VPblVzZSIgcmVmWT0iNSIgcmVmWD0iMTEiIHZpZXdCb3g9IjAgMCAxMCAxMCIgY2xhc3M9Im1hcmtlciBmbG93Y2hhcnQtdjIiIGlkPSJnZU1lcm1haWRPdXRwdXQtMTc0MDYwODU3OTA0NV9mbG93Y2hhcnQtdjItY2lyY2xlRW5kIj48Y2lyY2xlIHN0eWxlPSJzdHJva2Utd2lkdGg6IDFweDsgc3Ryb2tlLWRhc2hhcnJheTogMXB4LCAwcHg7IiBjbGFzcz0iYXJyb3dNYXJrZXJQYXRoIiByPSI1IiBjeT0iNSIgY3g9IjUiPjwvY2lyY2xlPjwvbWFya2VyPjxtYXJrZXIgb3JpZW50PSJhdXRvIiBtYXJrZXJIZWlnaHQ9IjExIiBtYXJrZXJXaWR0aD0iMTEiIG1hcmtlclVuaXRzPSJ1c2VyU3BhY2VPblVzZSIgcmVmWT0iNSIgcmVmWD0iLTEiIHZpZXdCb3g9IjAgMCAxMCAxMCIgY2xhc3M9Im1hcmtlciBmbG93Y2hhcnQtdjIiIGlkPSJnZU1lcm1haWRPdXRwdXQtMTc0MDYwODU3OTA0NV9mbG93Y2hhcnQtdjItY2lyY2xlU3RhcnQiPjxjaXJjbGUgc3R5bGU9InN0cm9rZS13aWR0aDogMXB4OyBzdHJva2UtZGFzaGFycmF5OiAxcHgsIDBweDsiIGNsYXNzPSJhcnJvd01hcmtlclBhdGgiIHI9IjUiIGN5PSI1IiBjeD0iNSI+PC9jaXJjbGU+PC9tYXJrZXI+PG1hcmtlciBvcmllbnQ9ImF1dG8iIG1hcmtlckhlaWdodD0iMTEiIG1hcmtlcldpZHRoPSIxMSIgbWFya2VyVW5pdHM9InVzZXJTcGFjZU9uVXNlIiByZWZZPSI1LjIiIHJlZlg9IjEyIiB2aWV3Qm94PSIwIDAgMTEgMTEiIGNsYXNzPSJtYXJrZXIgY3Jvc3MgZmxvd2NoYXJ0LXYyIiBpZD0iZ2VNZXJtYWlkT3V0cHV0LTE3NDA2MDg1NzkwNDVfZmxvd2NoYXJ0LXYyLWNyb3NzRW5kIj48cGF0aCBzdHlsZT0ic3Ryb2tlLXdpZHRoOiAycHg7IHN0cm9rZS1kYXNoYXJyYXk6IDFweCwgMHB4OyIgY2xhc3M9ImFycm93TWFya2VyUGF0aCIgZD0iTSAxLDEgbCA5LDkgTSAxMCwxIGwgLTksOSI+PC9wYXRoPjwvbWFya2VyPjxtYXJrZXIgb3JpZW50PSJhdXRvIiBtYXJrZXJIZWlnaHQ9IjExIiBtYXJrZXJXaWR0aD0iMTEiIG1hcmtlclVuaXRzPSJ1c2VyU3BhY2VPblVzZSIgcmVmWT0iNS4yIiByZWZYPSItMSIgdmlld0JveD0iMCAwIDExIDExIiBjbGFzcz0ibWFya2VyIGNyb3NzIGZsb3djaGFydC12MiIgaWQ9ImdlTWVybWFpZE91dHB1dC0xNzQwNjA4NTc5MDQ1X2Zsb3djaGFydC12Mi1jcm9zc1N0YXJ0Ij48cGF0aCBzdHlsZT0ic3Ryb2tlLXdpZHRoOiAycHg7IHN0cm9rZS1kYXNoYXJyYXk6IDFweCwgMHB4OyIgY2xhc3M9ImFycm93TWFya2VyUGF0aCIgZD0iTSAxLDEgbCA5LDkgTSAxMCwxIGwgLTksOSI+PC9wYXRoPjwvbWFya2VyPjxnIGNsYXNzPSJyb290Ij48ZyBjbGFzcz0iY2x1c3RlcnMiPjwvZz48ZyBjbGFzcz0iZWRnZVBhdGhzIj48cGF0aCBtYXJrZXItZW5kPSJ1cmwoI2dlTWVybWFpZE91dHB1dC0xNzQwNjA4NTc5MDQ1X2Zsb3djaGFydC12Mi1wb2ludEVuZCkiIHN0eWxlPSIiIGNsYXNzPSJlZGdlLXRoaWNrbmVzcy1ub3JtYWwgZWRnZS1wYXR0ZXJuLXNvbGlkIGVkZ2UtdGhpY2tuZXNzLW5vcm1hbCBlZGdlLXBhdHRlcm4tc29saWQgZmxvd2NoYXJ0LWxpbmsiIGlkPSJMX0FfQl8wIiBkPSJNMTY1My43NSw1NkwxNjUzLjc1LDYyQzE2NTMuNzUsNjgsMTY1My43NSw4MCwxNjUzLjc1LDg5QzE2NTMuNzUsOTgsMTY1My43NSwxMDQsMTY1My43NSwxMDkuMzMzQzE2NTMuNzUsMTE0LjY2NywxNjUzLjc1LDExOS4zMzMsMTY1My43NSwxMjEuNjY3TDE2NTMuNzUsMTI0Ij48L3BhdGg+PHBhdGggbWFya2VyLWVuZD0idXJsKCNnZU1lcm1haWRPdXRwdXQtMTc0MDYwODU3OTA0NV9mbG93Y2hhcnQtdjItcG9pbnRFbmQpIiBzdHlsZT0iIiBjbGFzcz0iZWRnZS10aGlja25lc3Mtbm9ybWFsIGVkZ2UtcGF0dGVybi1zb2xpZCBlZGdlLXRoaWNrbmVzcy1ub3JtYWwgZWRnZS1wYXR0ZXJuLXNvbGlkIGZsb3djaGFydC1saW5rIiBpZD0iTF9CX0NfMSIgZD0iTTE2NTMuNzUsMTc2TDE2NTMuNzUsMTgwLjE2N0MxNjUzLjc1LDE4NC4zMzMsMTY1My43NSwxOTIuNjY3LDE2NTMuNzkyLDE5OC45NThDMTY1My44MzMsMjA1LjI1LDE2NTMuOTE3LDIwOS41LDE2NTMuOTg3LDIxMy4wODNDMTY1NC4wNTcsMjE2LjY2NywxNjU0LjExNCwyMTkuNTg0LDE2NTQuMTQzLDIyMS4wNDJMMTY1NC4xNzIsMjIyLjUwMSI+PC9wYXRoPjxwYXRoIG1hcmtlci1lbmQ9InVybCgjZ2VNZXJtYWlkT3V0cHV0LTE3NDA2MDg1NzkwNDVfZmxvd2NoYXJ0LXYyLXBvaW50RW5kKSIgc3R5bGU9IiIgY2xhc3M9ImVkZ2UtdGhpY2tuZXNzLW5vcm1hbCBlZGdlLXBhdHRlcm4tc29saWQgZWRnZS10aGlja25lc3Mtbm9ybWFsIGVkZ2UtcGF0dGVybi1zb2xpZCBmbG93Y2hhcnQtbGluayIgaWQ9IkxfQ19EXzIiIGQ9Ik0xNTYwLjMzNCwzNDAuODAxTDEzNjAuNzM5LDM2Mi4zN0MxMTYxLjE0NCwzODMuOTM5LDc2MS45NTMsNDI3LjA3OCw1NjIuMzU4LDQ1OC42NDdDMzYyLjc2Miw0OTAuMjE3LDM2Mi43NjIsNTEwLjIxNywzNjIuNzYyLDUzMC4yMTdDMzYyLjc2Miw1NTAuMjE3LDM2Mi43NjIsNTcwLjIxNywzNjIuNzYyLDU5MC4yMTdDMzYyLjc2Miw2MTAuMjE3LDM2Mi43NjIsNjMwLjIxNywzNjIuNzYyLDY1MC4yMTdDMzYyLjc2Miw2NzAuMjE3LDM2Mi43NjIsNjkwLjIxNywzNjIuNzYyLDcxMC4yMTdDMzYyLjc2Miw3MzAuMjE3LDM2Mi43NjIsNzUwLjIxNywzNjIuNzYyLDc3MC4yMTdDMzYyLjc2Miw3OTAuMjE3LDM2Mi43NjIsODEwLjIxNywzNjIuNzYyLDgyMy4yMTdDMzYyLjc2Miw4MzYuMjE3LDM2Mi43NjIsODQyLjIxNywzNjIuNzYyLDg0Ny41NUMzNjIuNzYyLDg1Mi44ODMsMzYyLjc2Miw4NTcuNTUsMzYyLjc2Miw4NTkuODgzTDM2Mi43NjIsODYyLjIxNyI+PC9wYXRoPjxwYXRoIG1hcmtlci1lbmQ9InVybCgjZ2VNZXJtYWlkT3V0cHV0LTE3NDA2MDg1NzkwNDVfZmxvd2NoYXJ0LXYyLXBvaW50RW5kKSIgc3R5bGU9IiIgY2xhc3M9ImVkZ2UtdGhpY2tuZXNzLW5vcm1hbCBlZGdlLXBhdHRlcm4tc29saWQgZWRnZS10aGlja25lc3Mtbm9ybWFsIGVkZ2UtcGF0dGVybi1zb2xpZCBmbG93Y2hhcnQtbGluayIgaWQ9IkxfRF9FXzMiIGQ9Ik0yNjYuMDM3LDkxMi4xNzVMMjM4LjEwOSw5MTguNTE1QzIxMC4xODEsOTI0Ljg1NiwxNTQuMzI0LDkzNy41MzYsMTI2LjM5NSw5NDYuODc2Qzk4LjQ2Nyw5NTYuMjE3LDk4LjQ2Nyw5NjIuMjE3LDk4LjQ2Nyw5NjcuNTVDOTguNDY3LDk3Mi44ODMsOTguNDY3LDk3Ny41NSw5OC40NjcsOTc5Ljg4M0w5OC40NjcsOTgyLjIxNyI+PC9wYXRoPjxwYXRoIG1hcmtlci1lbmQ9InVybCgjZ2VNZXJtYWlkT3V0cHV0LTE3NDA2MDg1NzkwNDVfZmxvd2NoYXJ0LXYyLXBvaW50RW5kKSIgc3R5bGU9IiIgY2xhc3M9ImVkZ2UtdGhpY2tuZXNzLW5vcm1hbCBlZGdlLXBhdHRlcm4tc29saWQgZWRnZS10aGlja25lc3Mtbm9ybWFsIGVkZ2UtcGF0dGVybi1zb2xpZCBmbG93Y2hhcnQtbGluayIgaWQ9IkxfRF9GXzQiIGQ9Ik0zNDguNzM3LDkxNC4yMTdMMzQ1LjIzMSw5MjAuMjE3QzM0MS43MjUsOTI2LjIxNywzMzQuNzEyLDkzOC4yMTcsMzMxLjIwNiw5NDcuMjE3QzMyNy43LDk1Ni4yMTcsMzI3LjcsOTYyLjIxNywzMjcuNyw5NjcuNTVDMzI3LjcsOTcyLjg4MywzMjcuNyw5NzcuNTUsMzI3LjcsOTc5Ljg4M0wzMjcuNyw5ODIuMjE3Ij48L3BhdGg+PHBhdGggbWFya2VyLWVuZD0idXJsKCNnZU1lcm1haWRPdXRwdXQtMTc0MDYwODU3OTA0NV9mbG93Y2hhcnQtdjItcG9pbnRFbmQpIiBzdHlsZT0iIiBjbGFzcz0iZWRnZS10aGlja25lc3Mtbm9ybWFsIGVkZ2UtcGF0dGVybi1zb2xpZCBlZGdlLXRoaWNrbmVzcy1ub3JtYWwgZWRnZS1wYXR0ZXJuLXNvbGlkIGZsb3djaGFydC1saW5rIiBpZD0iTF9DX0dfNSIgZD0iTTE1NjUuMzI4LDM0NS43OTVMMTQ0My4zMzcsMzY2LjUzMkMxMzIxLjM0NSwzODcuMjY5LDEwNzcuMzYyLDQyOC43NDMsOTU1LjM3MSw0NTkuNDhDODMzLjM3OSw0OTAuMjE3LDgzMy4zNzksNTEwLjIxNyw4MzMuMzc5LDUzMC4yMTdDODMzLjM3OSw1NTAuMjE3LDgzMy4zNzksNTcwLjIxNyw4MzMuMzc5LDU5MC4yMTdDODMzLjM3OSw2MTAuMjE3LDgzMy4zNzksNjMwLjIxNyw4MzMuMzc5LDY1MC4yMTdDODMzLjM3OSw2NzAuMjE3LDgzMy4zNzksNjkwLjIxNyw4MzMuMzc5LDcxMC4yMTdDODMzLjM3OSw3MzAuMjE3LDgzMy4zNzksNzUwLjIxNyw4MzMuMzc5LDc3MC4yMTdDODMzLjM3OSw3OTAuMjE3LDgzMy4zNzksODEwLjIxNyw4MzMuMzc5LDgzMC4yMTdDODMzLjM3OSw4NTAuMjE3LDgzMy4zNzksODcwLjIxNyw4MzMuMzc5LDg5MC4yMTdDODMzLjM3OSw5MTAuMjE3LDgzMy4zNzksOTMwLjIxNyw4MzMuMzc5LDk0My4yMTdDODMzLjM3OSw5NTYuMjE3LDgzMy4zNzksOTYyLjIxNyw4MzMuMzc5LDk2Ny41NUM4MzMuMzc5LDk3Mi44ODMsODMzLjM3OSw5NzcuNTUsODMzLjM3OSw5NzkuODgzTDgzMy4zNzksOTgyLjIxNyI+PC9wYXRoPjxwYXRoIG1hcmtlci1lbmQ9InVybCgjZ2VNZXJtYWlkT3V0cHV0LTE3NDA2MDg1NzkwNDVfZmxvd2NoYXJ0LXYyLXBvaW50RW5kKSIgc3R5bGU9IiIgY2xhc3M9ImVkZ2UtdGhpY2tuZXNzLW5vcm1hbCBlZGdlLXBhdHRlcm4tc29saWQgZWRnZS10aGlja25lc3Mtbm9ybWFsIGVkZ2UtcGF0dGVybi1zb2xpZCBmbG93Y2hhcnQtbGluayIgaWQ9IkxfQ19IXzYiIGQ9Ik0xNTc2Ljk5MiwzNTcuNDU5TDE1MjIuNTk1LDM3Ni4yNTJDMTQ2OC4xOTcsMzk1LjA0NSwxMzU5LjQwMyw0MzIuNjMxLDEzMDUuMDA2LDQ2MS40MjRDMTI1MC42MDgsNDkwLjIxNywxMjUwLjYwOCw1MTAuMjE3LDEyNTAuNjA4LDUzMC4yMTdDMTI1MC42MDgsNTUwLjIxNywxMjUwLjYwOCw1NzAuMjE3LDEyNTAuNjA4LDU5MC4yMTdDMTI1MC42MDgsNjEwLjIxNywxMjUwLjYwOCw2MzAuMjE3LDEyNTAuNjA4LDY1MC4yMTdDMTI1MC42MDgsNjcwLjIxNywxMjUwLjYwOCw2OTAuMjE3LDEyNTAuNjA4LDcxMC4yMTdDMTI1MC42MDgsNzMwLjIxNywxMjUwLjYwOCw3NTAuMjE3LDEyNTAuNjA4LDc3MC4yMTdDMTI1MC42MDgsNzkwLjIxNywxMjUwLjYwOCw4MTAuMjE3LDEyNTAuNjA4LDgzMC4yMTdDMTI1MC42MDgsODUwLjIxNywxMjUwLjYwOCw4NzAuMjE3LDEyNTAuNjA4LDg5MC4yMTdDMTI1MC42MDgsOTEwLjIxNywxMjUwLjYwOCw5MzAuMjE3LDEyNTAuNjA4LDk0My4yMTdDMTI1MC42MDgsOTU2LjIxNywxMjUwLjYwOCw5NjIuMjE3LDEyNTAuNjA4LDk2Ny41NUMxMjUwLjYwOCw5NzIuODgzLDEyNTAuNjA4LDk3Ny41NSwxMjUwLjYwOCw5NzkuODgzTDEyNTAuNjA4LDk4Mi4yMTciPjwvcGF0aD48cGF0aCBtYXJrZXItZW5kPSJ1cmwoI2dlTWVybWFpZE91dHB1dC0xNzQwNjA4NTc5MDQ1X2Zsb3djaGFydC12Mi1wb2ludEVuZCkiIHN0eWxlPSIiIGNsYXNzPSJlZGdlLXRoaWNrbmVzcy1ub3JtYWwgZWRnZS1wYXR0ZXJuLXNvbGlkIGVkZ2UtdGhpY2tuZXNzLW5vcm1hbCBlZGdlLXBhdHRlcm4tc29saWQgZmxvd2NoYXJ0LWxpbmsiIGlkPSJMX0NfSV83IiBkPSJNMTYwMi42NzQsMzgzLjE0MUwxNTg4LjI2LDM5Ny42NTNDMTU3My44NDYsNDEyLjE2NiwxNTQ1LjAxOSw0NDEuMTkxLDE1MzAuNjA1LDQ2NS43MDRDMTUxNi4xOTIsNDkwLjIxNywxNTE2LjE5Miw1MTAuMjE3LDE1MTYuMTkyLDUzMC4yMTdDMTUxNi4xOTIsNTUwLjIxNywxNTE2LjE5Miw1NzAuMjE3LDE1MTYuMTkyLDU5MC4yMTdDMTUxNi4xOTIsNjEwLjIxNywxNTE2LjE5Miw2MzAuMjE3LDE1MTYuMTkyLDY1MC4yMTdDMTUxNi4xOTIsNjcwLjIxNywxNTE2LjE5Miw2OTAuMjE3LDE1MTYuMTkyLDcxMC4yMTdDMTUxNi4xOTIsNzMwLjIxNywxNTE2LjE5Miw3NTAuMjE3LDE1MTYuMTkyLDc3MC4yMTdDMTUxNi4xOTIsNzkwLjIxNywxNTE2LjE5Miw4MTAuMjE3LDE1MTYuMTkyLDgzMC4yMTdDMTUxNi4xOTIsODUwLjIxNywxNTE2LjE5Miw4NzAuMjE3LDE1MTYuMTkyLDg5MC4yMTdDMTUxNi4xOTIsOTEwLjIxNywxNTE2LjE5Miw5MzAuMjE3LDE1MTYuMTkyLDk0My4yMTdDMTUxNi4xOTIsOTU2LjIxNywxNTE2LjE5Miw5NjIuMjE3LDE1MTYuMTkyLDk2Ny41NUMxNTE2LjE5Miw5NzIuODgzLDE1MTYuMTkyLDk3Ny41NSwxNTE2LjE5Miw5NzkuODgzTDE1MTYuMTkyLDk4Mi4yMTciPjwvcGF0aD48cGF0aCBtYXJrZXItZW5kPSJ1cmwoI2dlTWVybWFpZE91dHB1dC0xNzQwNjA4NTc5MDQ1X2Zsb3djaGFydC12Mi1wb2ludEVuZCkiIHN0eWxlPSIiIGNsYXNzPSJlZGdlLXRoaWNrbmVzcy1ub3JtYWwgZWRnZS1wYXR0ZXJuLXNvbGlkIGVkZ2UtdGhpY2tuZXNzLW5vcm1hbCBlZGdlLXBhdHRlcm4tc29saWQgZmxvd2NoYXJ0LWxpbmsiIGlkPSJMX0NfSl84IiBkPSJNMTczMS41MDcsMzU3LjQ1OUwxNzg1LjczNiwzNzYuMjUyQzE4MzkuOTY1LDM5NS4wNDUsMTk0OC40MjIsNDMyLjYzMSwyMDAyLjY1MSw0NTQuNDI0QzIwNTYuODc5LDQ3Ni4yMTcsMjA1Ni44NzksNDgyLjIxNywyMDU2Ljg3OSw0ODcuNTVDMjA1Ni44NzksNDkyLjg4MywyMDU2Ljg3OSw0OTcuNTUsMjA1Ni44NzksNDk5Ljg4M0wyMDU2Ljg3OSw1MDIuMjE3Ij48L3BhdGg+PHBhdGggbWFya2VyLWVuZD0idXJsKCNnZU1lcm1haWRPdXRwdXQtMTc0MDYwODU3OTA0NV9mbG93Y2hhcnQtdjItcG9pbnRFbmQpIiBzdHlsZT0iIiBjbGFzcz0iZWRnZS10aGlja25lc3Mtbm9ybWFsIGVkZ2UtcGF0dGVybi1zb2xpZCBlZGdlLXRoaWNrbmVzcy1ub3JtYWwgZWRnZS1wYXR0ZXJuLXNvbGlkIGZsb3djaGFydC1saW5rIiBpZD0iTF9HX0tfOSIgZD0iTTc2NS43NTQsMTAzNC4yMTdMNzQ4Ljg0OCwxMDQwLjIxN0M3MzEuOTQyLDEwNDYuMjE3LDY5OC4xMjksMTA1OC4yMTcsNjczLjQzOSwxMDY4LjI1QzY0OC43NDksMTA3OC4yODMsNjMzLjE4LDEwODYuMzQ5LDYxOC4yMDQsMTA5NC4xMDlDNjAzLjIyOCwxMTAxLjg2OCw1ODguODQ0LDExMDkuMzIxLDU4MS42NTIsMTExMy4wNDhMNTc0LjQ2LDExMTYuNzc0Ij48L3BhdGg+PHBhdGggbWFya2VyLWVuZD0idXJsKCNnZU1lcm1haWRPdXRwdXQtMTc0MDYwODU3OTA0NV9mbG93Y2hhcnQtdjItcG9pbnRFbmQpIiBzdHlsZT0iIiBjbGFzcz0iZWRnZS10aGlja25lc3Mtbm9ybWFsIGVkZ2UtcGF0dGVybi1zb2xpZCBlZGdlLXRoaWNrbmVzcy1ub3JtYWwgZWRnZS1wYXR0ZXJuLXNvbGlkIGZsb3djaGFydC1saW5rIiBpZD0iTF9HX0xfMTAiIGQ9Ik04NjEuNTIxLDEwMzQuMjE3TDg2OC41NTYsMTA0MC4yMTdDODc1LjU5MiwxMDQ2LjIxNyw4ODkuNjYzLDEwNTguMjE3LDg4OC45MTQsMTA2OC4yNUM4ODguMTY1LDEwNzguMjgzLDg3Mi41OTcsMTA4Ni4zNDksODU3LjYyMSwxMDk0LjEwOUM4NDIuNjQ1LDExMDEuODY4LDgyOC4yNjEsMTEwOS4zMjEsODIxLjA2OCwxMTEzLjA0OEw4MTMuODc2LDExMTYuNzc0Ij48L3BhdGg+PHBhdGggbWFya2VyLWVuZD0idXJsKCNnZU1lcm1haWRPdXRwdXQtMTc0MDYwODU3OTA0NV9mbG93Y2hhcnQtdjItcG9pbnRFbmQpIiBzdHlsZT0iIiBjbGFzcz0iZWRnZS10aGlja25lc3Mtbm9ybWFsIGVkZ2UtcGF0dGVybi1zb2xpZCBlZGdlLXRoaWNrbmVzcy1ub3JtYWwgZWRnZS1wYXR0ZXJuLXNvbGlkIGZsb3djaGFydC1saW5rIiBpZD0iTF9IX01fMTEiIGQ9Ik0xMjIyLjg1OCwxMDM0LjIxN0wxMjE1LjkyMSwxMDQwLjIxN0MxMjA4Ljk4MywxMDQ2LjIxNywxMTk1LjEwOCwxMDU4LjIxNywxMTgwLjM4NywxMDY4LjI1QzExNjUuNjY1LDEwNzguMjgzLDExNTAuMDk3LDEwODYuMzQ5LDExMzUuMTIxLDEwOTQuMTA5QzExMjAuMTQ1LDExMDEuODY4LDExMDUuNzYxLDExMDkuMzIxLDEwOTguNTY4LDExMTMuMDQ4TDEwOTEuMzc2LDExMTYuNzc0Ij48L3BhdGg+PHBhdGggbWFya2VyLWVuZD0idXJsKCNnZU1lcm1haWRPdXRwdXQtMTc0MDYwODU3OTA0NV9mbG93Y2hhcnQtdjItcG9pbnRFbmQpIiBzdHlsZT0iIiBjbGFzcz0iZWRnZS10aGlja25lc3Mtbm9ybWFsIGVkZ2UtcGF0dGVybi1zb2xpZCBlZGdlLXRoaWNrbmVzcy1ub3JtYWwgZWRnZS1wYXR0ZXJuLXNvbGlkIGZsb3djaGFydC1saW5rIiBpZD0iTF9HX05fMTIiIGQ9Ik05MTcuMDIxLDEwMzQuMjE3TDkzNy45MzEsMTA0MC4yMTdDOTU4Ljg0MiwxMDQ2LjIxNywxMDAwLjY2MywxMDU4LjIxNywxMDk0LjI3LDEwNjkuNzk4QzExODcuODc3LDEwODEuMzc5LDEzMzMuMjcxLDEwOTIuNTQxLDE0NzgsMTEwMy42NTJDMTYyMi43MjksMTExNC43NjQsMTc2Ni43OTMsMTEyNS44MjQsMTgzOC44MjUsMTEzMS4zNTRMMTkxMC44NTgsMTEzNi44ODQiPjwvcGF0aD48cGF0aCBtYXJrZXItZW5kPSJ1cmwoI2dlTWVybWFpZE91dHB1dC0xNzQwNjA4NTc5MDQ1X2Zsb3djaGFydC12Mi1wb2ludEVuZCkiIHN0eWxlPSIiIGNsYXNzPSJlZGdlLXRoaWNrbmVzcy1ub3JtYWwgZWRnZS1wYXR0ZXJuLXNvbGlkIGVkZ2UtdGhpY2tuZXNzLW5vcm1hbCBlZGdlLXBhdHRlcm4tc29saWQgZmxvd2NoYXJ0LWxpbmsiIGlkPSJMX0hfTl8xMyIgZD0iTTEyNzguMzU4LDEwMzQuMjE3TDEyODUuMjk2LDEwNDAuMjE3QzEyOTIuMjMzLDEwNDYuMjE3LDEzMDYuMTA4LDEwNTguMjE3LDEzNjIuNjE4LDEwNjkuNjA5QzE0MTkuMTI3LDEwODEuMDAyLDE1MTguMjcxLDEwOTEuNzg3LDE2MTYuNzUyLDExMDIuNTAxQzE3MTUuMjMzLDExMTMuMjE0LDE4MTMuMDUxLDExMjMuODU1LDE4NjEuOTYsMTEyOS4xNzZMMTkxMC44NjksMTEzNC40OTYiPjwvcGF0aD48cGF0aCBtYXJrZXItZW5kPSJ1cmwoI2dlTWVybWFpZE91dHB1dC0xNzQwNjA4NTc5MDQ1X2Zsb3djaGFydC12Mi1wb2ludEVuZCkiIHN0eWxlPSIiIGNsYXNzPSJlZGdlLXRoaWNrbmVzcy1ub3JtYWwgZWRnZS1wYXR0ZXJuLXNvbGlkIGVkZ2UtdGhpY2tuZXNzLW5vcm1hbCBlZGdlLXBhdHRlcm4tc29saWQgZmxvd2NoYXJ0LWxpbmsiIGlkPSJMX0lfTl8xNCIgZD0iTTE1MTYuMTkyLDEwMzQuMjE3TDE1MTYuMTkyLDEwNDAuMjE3QzE1MTYuMTkyLDEwNDYuMjE3LDE1MTYuMTkyLDEwNTguMjE3LDE1NDkuNDEzLDEwNjkuMzQyQzE1ODIuNjM0LDEwODAuNDY2LDE2NDkuMDc2LDEwOTAuNzE2LDE3MTQuODYsMTEwMC44NjRDMTc4MC42NDMsMTExMS4wMTMsMTg0NS43NjgsMTEyMS4wNTksMTg3OC4zMywxMTI2LjA4MkwxOTEwLjg5MywxMTMxLjEwNiI+PC9wYXRoPjxwYXRoIG1hcmtlci1lbmQ9InVybCgjZ2VNZXJtYWlkT3V0cHV0LTE3NDA2MDg1NzkwNDVfZmxvd2NoYXJ0LXYyLXBvaW50RW5kKSIgc3R5bGU9IiIgY2xhc3M9ImVkZ2UtdGhpY2tuZXNzLW5vcm1hbCBlZGdlLXBhdHRlcm4tc29saWQgZWRnZS10aGlja25lc3Mtbm9ybWFsIGVkZ2UtcGF0dGVybi1zb2xpZCBmbG93Y2hhcnQtbGluayIgaWQ9IkxfSl9OXzE1IiBkPSJNMTk2My43MjEsNTQzLjQzOEwxOTA4Ljc4Nyw1NTEuMjM0QzE4NTMuODUzLDU1OS4wMzEsMTc0My45ODUsNTc0LjYyNCwxNjg5LjA1MSw1OTIuNDJDMTYzNC4xMTcsNjEwLjIxNywxNjM0LjExNyw2MzAuMjE3LDE2MzQuMTE3LDY1MC4yMTdDMTYzNC4xMTcsNjcwLjIxNywxNjM0LjExNyw2OTAuMjE3LDE2MzQuMTE3LDcxMC4yMTdDMTYzNC4xMTcsNzMwLjIxNywxNjM0LjExNyw3NTAuMjE3LDE2MzQuMTE3LDc3MC4yMTdDMTYzNC4xMTcsNzkwLjIxNywxNjM0LjExNyw4MTAuMjE3LDE2MzQuMTE3LDgzMC4yMTdDMTYzNC4xMTcsODUwLjIxNywxNjM0LjExNyw4NzAuMjE3LDE2MzQuMTE3LDg5MC4yMTdDMTYzNC4xMTcsOTEwLjIxNywxNjM0LjExNyw5MzAuMjE3LDE2MzQuMTE3LDk1MC4yMTdDMTYzNC4xMTcsOTcwLjIxNywxNjM0LjExNyw5OTAuMjE3LDE2MzQuMTE3LDEwMTAuMjE3QzE2MzQuMTE3LDEwMzAuMjE3LDE2MzQuMTE3LDEwNTAuMjE3LDE2NTcuNTExLDEwNjUuMDM3QzE2ODAuOTA1LDEwNzkuODU3LDE3MjcuNjkzLDEwODkuNDk3LDE3NzMuODI4LDEwOTkuMDAzQzE4MTkuOTY0LDExMDguNTA4LDE4NjUuNDQ2LDExMTcuODc5LDE4ODguMTg3LDExMjIuNTY1TDE5MTAuOTI4LDExMjcuMjUxIj48L3BhdGg+PHBhdGggbWFya2VyLWVuZD0idXJsKCNnZU1lcm1haWRPdXRwdXQtMTc0MDYwODU3OTA0NV9mbG93Y2hhcnQtdjItcG9pbnRFbmQpIiBzdHlsZT0iIiBjbGFzcz0iZWRnZS10aGlja25lc3Mtbm9ybWFsIGVkZ2UtcGF0dGVybi1zb2xpZCBlZGdlLXRoaWNrbmVzcy1ub3JtYWwgZWRnZS1wYXR0ZXJuLXNvbGlkIGZsb3djaGFydC1saW5rIiBpZD0iTF9EX05fMTYiIGQ9Ik00MjkuMjkxLDkxNC4yMTdMNDQ1LjkyMyw5MjAuMjE3QzQ2Mi41NTUsOTI2LjIxNyw0OTUuODE5LDkzOC4yMTcsNTEyLjQ1MSw5NTQuMjE3QzUyOS4wODMsOTcwLjIxNyw1MjkuMDgzLDk5MC4yMTcsNTI5LjA4MywxMDEwLjIxN0M1MjkuMDgzLDEwMzAuMjE3LDUyOS4wODMsMTA1MC4yMTcsNjQ0LjU2NCwxMDY1Ljk1N0M3NjAuMDQ0LDEwODEuNjk4LDk5MS4wMDQsMTA5My4xNzksMTIyMS4yOTksMTEwNC42MjZDMTQ1MS41OTMsMTExNi4wNzQsMTY4MS4yMjIsMTEyNy40ODksMTc5Ni4wMzYsMTEzMy4xOTZMMTkxMC44NTEsMTEzOC45MDQiPjwvcGF0aD48cGF0aCBtYXJrZXItZW5kPSJ1cmwoI2dlTWVybWFpZE91dHB1dC0xNzQwNjA4NTc5MDQ1X2Zsb3djaGFydC12Mi1wb2ludEVuZCkiIHN0eWxlPSIiIGNsYXNzPSJlZGdlLXRoaWNrbmVzcy1ub3JtYWwgZWRnZS1wYXR0ZXJuLXNvbGlkIGVkZ2UtdGhpY2tuZXNzLW5vcm1hbCBlZGdlLXBhdHRlcm4tc29saWQgZmxvd2NoYXJ0LWxpbmsiIGlkPSJMX0ZfTl8xNyIgZD0iTTMyNy43LDEwMzQuMjE3TDMyNy43LDEwNDAuMjE3QzMyNy43LDEwNDYuMjE3LDMyNy43LDEwNTguMjE3LDQ1OS45NjIsMTA2OS45OTNDNTkyLjIyNCwxMDgxLjc2OSw4NTYuNzQ5LDEwOTMuMzIxLDExMjAuNjA3LDExMDQuODQ0QzEzODQuNDY1LDExMTYuMzY3LDE2NDcuNjU3LDExMjcuODYxLDE3NzkuMjU0LDExMzMuNjA4TDE5MTAuODUsMTEzOS4zNTQiPjwvcGF0aD48cGF0aCBtYXJrZXItZW5kPSJ1cmwoI2dlTWVybWFpZE91dHB1dC0xNzQwNjA4NTc5MDQ1X2Zsb3djaGFydC12Mi1wb2ludEVuZCkiIHN0eWxlPSIiIGNsYXNzPSJlZGdlLXRoaWNrbmVzcy1ub3JtYWwgZWRnZS1wYXR0ZXJuLXNvbGlkIGVkZ2UtdGhpY2tuZXNzLW5vcm1hbCBlZGdlLXBhdHRlcm4tc29saWQgZmxvd2NoYXJ0LWxpbmsiIGlkPSJMX0pfT18xOCIgZD0iTTE5NjMuNzIxLDU1MC44MzlMMTkzNC4wNzMsNTU3LjQwMkMxOTA0LjQyNSw1NjMuOTY1LDE4NDUuMTI5LDU3Ny4wOTEsMTgxNS40ODEsNTg2LjY1NEMxNzg1LjgzMyw1OTYuMjE3LDE3ODUuODMzLDYwMi4yMTcsMTc4NS44MzMsNjA3LjU1QzE3ODUuODMzLDYxMi44ODMsMTc4NS44MzMsNjE3LjU1LDE3ODUuODMzLDYxOS44ODNMMTc4NS44MzMsNjIyLjIxNyI+PC9wYXRoPjxwYXRoIG1hcmtlci1lbmQ9InVybCgjZ2VNZXJtYWlkT3V0cHV0LTE3NDA2MDg1NzkwNDVfZmxvd2NoYXJ0LXYyLXBvaW50RW5kKSIgc3R5bGU9IiIgY2xhc3M9ImVkZ2UtdGhpY2tuZXNzLW5vcm1hbCBlZGdlLXBhdHRlcm4tc29saWQgZWRnZS10aGlja25lc3Mtbm9ybWFsIGVkZ2UtcGF0dGVybi1zb2xpZCBmbG93Y2hhcnQtbGluayIgaWQ9IkxfSl9QXzE5IiBkPSJNMjA2My40MzgsNTU0LjIxN0wyMDY1LjA3Nyw1NjAuMjE3QzIwNjYuNzE3LDU2Ni4yMTcsMjA2OS45OTYsNTc4LjIxNywyMDcxLjYzNSw1ODcuMjE3QzIwNzMuMjc1LDU5Ni4yMTcsMjA3My4yNzUsNjAyLjIxNywyMDczLjI3NSw2MDcuNTVDMjA3My4yNzUsNjEyLjg4MywyMDczLjI3NSw2MTcuNTUsMjA3My4yNzUsNjE5Ljg4M0wyMDczLjI3NSw2MjIuMjE3Ij48L3BhdGg+PHBhdGggbWFya2VyLWVuZD0idXJsKCNnZU1lcm1haWRPdXRwdXQtMTc0MDYwODU3OTA0NV9mbG93Y2hhcnQtdjItcG9pbnRFbmQpIiBzdHlsZT0iIiBjbGFzcz0iZWRnZS10aGlja25lc3Mtbm9ybWFsIGVkZ2UtcGF0dGVybi1zb2xpZCBlZGdlLXRoaWNrbmVzcy1ub3JtYWwgZWRnZS1wYXR0ZXJuLXNvbGlkIGZsb3djaGFydC1saW5rIiBpZD0iTF9KX01PRDFfMjAiIGQ9Ik0yMTUwLjAzOCw1NTAuMDZMMjE4MS40NTksNTU2Ljc1MkMyMjEyLjg4MSw1NjMuNDQ1LDIyNzUuNzI0LDU3Ni44MzEsMjMwNy4xNDUsNTg2LjUyNEMyMzM4LjU2Nyw1OTYuMjE3LDIzMzguNTY3LDYwMi4yMTcsMjMzOC41NjcsNjA3LjU1QzIzMzguNTY3LDYxMi44ODMsMjMzOC41NjcsNjE3LjU1LDIzMzguNTY3LDYxOS44ODNMMjMzOC41NjcsNjIyLjIxNyI+PC9wYXRoPjxwYXRoIG1hcmtlci1lbmQ9InVybCgjZ2VNZXJtYWlkT3V0cHV0LTE3NDA2MDg1NzkwNDVfZmxvd2NoYXJ0LXYyLXBvaW50RW5kKSIgc3R5bGU9IiIgY2xhc3M9ImVkZ2UtdGhpY2tuZXNzLW5vcm1hbCBlZGdlLXBhdHRlcm4tc29saWQgZWRnZS10aGlja25lc3Mtbm9ybWFsIGVkZ2UtcGF0dGVybi1zb2xpZCBmbG93Y2hhcnQtbGluayIgaWQ9IkxfTU9EMV9NT0QyXzIxIiBkPSJNMjI4OS44NzIsNjc0LjIxN0wyMjc3LjY5OCw2ODAuMjE3QzIyNjUuNTI0LDY4Ni4yMTcsMjI0MS4xNzcsNjk4LjIxNywyMjI5LjAwMyw3MDcuMjE3QzIyMTYuODI5LDcxNi4yMTcsMjIxNi44MjksNzIyLjIxNywyMjE2LjgyOSw3MjcuNTVDMjIxNi44MjksNzMyLjg4MywyMjE2LjgyOSw3MzcuNTUsMjIxNi44MjksNzM5Ljg4M0wyMjE2LjgyOSw3NDIuMjE3Ij48L3BhdGg+PHBhdGggbWFya2VyLWVuZD0idXJsKCNnZU1lcm1haWRPdXRwdXQtMTc0MDYwODU3OTA0NV9mbG93Y2hhcnQtdjItcG9pbnRFbmQpIiBzdHlsZT0iIiBjbGFzcz0iZWRnZS10aGlja25lc3Mtbm9ybWFsIGVkZ2UtcGF0dGVybi1zb2xpZCBlZGdlLXRoaWNrbmVzcy1ub3JtYWwgZWRnZS1wYXR0ZXJuLXNvbGlkIGZsb3djaGFydC1saW5rIiBpZD0iTF9NT0QyX01PRDNfMjIiIGQ9Ik0yMTkwLjkxNiw3OTQuMjE3TDIxODQuNDM4LDgwMC4yMTdDMjE3Ny45NTksODA2LjIxNywyMTY1LjAwMyw4MTguMjE3LDIxNTguNTI0LDgyNy4yMTdDMjE1Mi4wNDYsODM2LjIxNywyMTUyLjA0Niw4NDIuMjE3LDIxNTIuMDQ2LDg0Ny41NUMyMTUyLjA0Niw4NTIuODgzLDIxNTIuMDQ2LDg1Ny41NSwyMTUyLjA0Niw4NTkuODgzTDIxNTIuMDQ2LDg2Mi4yMTciPjwvcGF0aD48cGF0aCBtYXJrZXItZW5kPSJ1cmwoI2dlTWVybWFpZE91dHB1dC0xNzQwNjA4NTc5MDQ1X2Zsb3djaGFydC12Mi1wb2ludEVuZCkiIHN0eWxlPSIiIGNsYXNzPSJlZGdlLXRoaWNrbmVzcy1ub3JtYWwgZWRnZS1wYXR0ZXJuLXNvbGlkIGVkZ2UtdGhpY2tuZXNzLW5vcm1hbCBlZGdlLXBhdHRlcm4tc29saWQgZmxvd2NoYXJ0LWxpbmsiIGlkPSJMX01PRDNfTU9ENF8yMyIgZD0iTTIxMTEuNjc4LDkxNC4yMTdMMjEwMS41ODUsOTIwLjIxN0MyMDkxLjQ5Myw5MjYuMjE3LDIwNzEuMzA5LDkzOC4yMTcsMjA2MS4yMTcsOTQ3LjIxN0MyMDUxLjEyNSw5NTYuMjE3LDIwNTEuMTI1LDk2Mi4yMTcsMjA1MS4xMjUsOTY3LjU1QzIwNTEuMTI1LDk3Mi44ODMsMjA1MS4xMjUsOTc3LjU1LDIwNTEuMTI1LDk3OS44ODNMMjA1MS4xMjUsOTgyLjIxNyI+PC9wYXRoPjxwYXRoIG1hcmtlci1lbmQ9InVybCgjZ2VNZXJtYWlkT3V0cHV0LTE3NDA2MDg1NzkwNDVfZmxvd2NoYXJ0LXYyLXBvaW50RW5kKSIgc3R5bGU9IiIgY2xhc3M9ImVkZ2UtdGhpY2tuZXNzLW5vcm1hbCBlZGdlLXBhdHRlcm4tc29saWQgZWRnZS10aGlja25lc3Mtbm9ybWFsIGVkZ2UtcGF0dGVybi1zb2xpZCBmbG93Y2hhcnQtbGluayIgaWQ9IkxfTU9EMV9OXzI0IiBkPSJNMjQxNS44NDUsNjc0LjIxN0wyNDM1LjE2NSw2ODAuMjE3QzI0NTQuNDg0LDY4Ni4yMTcsMjQ5My4xMjMsNjk4LjIxNywyNTEyLjQ0Myw3MTQuMjE3QzI1MzEuNzYzLDczMC4yMTcsMjUzMS43NjMsNzUwLjIxNywyNTMxLjc2Myw3NzAuMjE3QzI1MzEuNzYzLDc5MC4yMTcsMjUzMS43NjMsODEwLjIxNywyNTMxLjc2Myw4MzAuMjE3QzI1MzEuNzYzLDg1MC4yMTcsMjUzMS43NjMsODcwLjIxNywyNTMxLjc2Myw4OTAuMjE3QzI1MzEuNzYzLDkxMC4yMTcsMjUzMS43NjMsOTMwLjIxNywyNTMxLjc2Myw5NTAuMjE3QzI1MzEuNzYzLDk3MC4yMTcsMjUzMS43NjMsOTkwLjIxNywyNTMxLjc2MywxMDEwLjIxN0MyNTMxLjc2MywxMDMwLjIxNywyNTMxLjc2MywxMDUwLjIxNywyNDkyLjEyOCwxMDY1LjQ3QzI0NTIuNDkzLDEwODAuNzIyLDIzNzMuMjI0LDEwOTEuMjI4LDIyOTQuNjE1LDExMDEuNjQ2QzIyMTYuMDA3LDExMTIuMDY0LDIxMzguMDU5LDExMjIuMzk1LDIwOTkuMDg1LDExMjcuNTZMMjA2MC4xMTEsMTEzMi43MjUiPjwvcGF0aD48cGF0aCBtYXJrZXItZW5kPSJ1cmwoI2dlTWVybWFpZE91dHB1dC0xNzQwNjA4NTc5MDQ1X2Zsb3djaGFydC12Mi1wb2ludEVuZCkiIHN0eWxlPSIiIGNsYXNzPSJlZGdlLXRoaWNrbmVzcy1ub3JtYWwgZWRnZS1wYXR0ZXJuLXNvbGlkIGVkZ2UtdGhpY2tuZXNzLW5vcm1hbCBlZGdlLXBhdHRlcm4tc29saWQgZmxvd2NoYXJ0LWxpbmsiIGlkPSJMX01PRDJfTl8yNSIgZD0iTTIyNzUuNjUzLDc5NC4yMTdMMjI5MC4zNTgsODAwLjIxN0MyMzA1LjA2NCw4MDYuMjE3LDIzMzQuNDc2LDgxOC4yMTcsMjM0OS4xODIsODM0LjIxN0MyMzYzLjg4OCw4NTAuMjE3LDIzNjMuODg4LDg3MC4yMTcsMjM2My44ODgsODkwLjIxN0MyMzYzLjg4OCw5MTAuMjE3LDIzNjMuODg4LDkzMC4yMTcsMjM2My44ODgsOTUwLjIxN0MyMzYzLjg4OCw5NzAuMjE3LDIzNjMuODg4LDk5MC4yMTcsMjM2My44ODgsMTAxMC4yMTdDMjM2My44ODgsMTAzMC4yMTcsMjM2My44ODgsMTA1MC4yMTcsMjMzOC4yNDIsMTA2NS4xMjNDMjMxMi41OTcsMTA4MC4wMywyMjYxLjMwNywxMDg5Ljg0MywyMjEwLjY3MSwxMDk5LjUzMUMyMTYwLjAzNiwxMTA5LjIyLDIxMTAuMDU1LDExMTguNzgyLDIwODUuMDY1LDExMjMuNTY0TDIwNjAuMDc1LDExMjguMzQ1Ij48L3BhdGg+PHBhdGggbWFya2VyLWVuZD0idXJsKCNnZU1lcm1haWRPdXRwdXQtMTc0MDYwODU3OTA0NV9mbG93Y2hhcnQtdjItcG9pbnRFbmQpIiBzdHlsZT0iIiBjbGFzcz0iZWRnZS10aGlja25lc3Mtbm9ybWFsIGVkZ2UtcGF0dGVybi1zb2xpZCBlZGdlLXRoaWNrbmVzcy1ub3JtYWwgZWRnZS1wYXR0ZXJuLXNvbGlkIGZsb3djaGFydC1saW5rIiBpZD0iTF9NT0QzX05fMjYiIGQ9Ik0yMTkyLjQxNCw5MTQuMjE3TDIyMDIuNTA2LDkyMC4yMTdDMjIxMi41OTgsOTI2LjIxNywyMjMyLjc4Myw5MzguMjE3LDIyNDIuODc1LDk1NC4yMTdDMjI1Mi45NjcsOTcwLjIxNywyMjUyLjk2Nyw5OTAuMjE3LDIyNTIuOTY3LDEwMTAuMjE3QzIyNTIuOTY3LDEwMzAuMjE3LDIyNTIuOTY3LDEwNTAuMjE3LDIyMzYuNTY1LDEwNjQuNjU2QzIyMjAuMTYzLDEwNzkuMDk2LDIxODcuMzYsMTA4Ny45NzUsMjE1NS4yLDEwOTYuNjhDMjEyMy4wNCwxMTA1LjM4NSwyMDkxLjUyMywxMTEzLjkxNSwyMDc1Ljc2NSwxMTE4LjE4MUwyMDYwLjAwNywxMTIyLjQ0NiI+PC9wYXRoPjxwYXRoIG1hcmtlci1lbmQ9InVybCgjZ2VNZXJtYWlkT3V0cHV0LTE3NDA2MDg1NzkwNDVfZmxvd2NoYXJ0LXYyLXBvaW50RW5kKSIgc3R5bGU9IiIgY2xhc3M9ImVkZ2UtdGhpY2tuZXNzLW5vcm1hbCBlZGdlLXBhdHRlcm4tc29saWQgZWRnZS10aGlja25lc3Mtbm9ybWFsIGVkZ2UtcGF0dGVybi1zb2xpZCBmbG93Y2hhcnQtbGluayIgaWQ9IkxfTU9ENF9OXzI3IiBkPSJNMjA1MS4xMjUsMTAzNC4yMTdMMjA1MS4xMjUsMTA0MC4yMTdDMjA1MS4xMjUsMTA0Ni4yMTcsMjA1MS4xMjUsMTA1OC4yMTcsMjA0OC40MDUsMTA2Ny4zNDVDMjA0NS42ODYsMTA3Ni40NzMsMjA0MC4yNDcsMTA4Mi43MjgsMjAzNS4yNDUsMTA4OC40ODFDMjAzMC4yNDQsMTA5NC4yMzQsMjAyNS42NzksMTA5OS40ODQsMjAyMy4zOTcsMTEwMi4xMDlMMjAyMS4xMTUsMTEwNC43MzMiPjwvcGF0aD48cGF0aCBtYXJrZXItZW5kPSJ1cmwoI2dlTWVybWFpZE91dHB1dC0xNzQwNjA4NTc5MDQ1X2Zsb3djaGFydC12Mi1wb2ludEVuZCkiIHN0eWxlPSIiIGNsYXNzPSJlZGdlLXRoaWNrbmVzcy1ub3JtYWwgZWRnZS1wYXR0ZXJuLXNvbGlkIGVkZ2UtdGhpY2tuZXNzLW5vcm1hbCBlZGdlLXBhdHRlcm4tc29saWQgZmxvd2NoYXJ0LWxpbmsiIGlkPSJMX0NfUV8yOCIgZD0iTTE3NDYuMjcyLDM0Mi42OTVMMTkwOC42MzksMzYzLjk0OUMyMDcxLjAwNiwzODUuMjAyLDIzOTUuNzQxLDQyNy43MDksMjU1OC4xMDgsNDU4Ljk2M0MyNzIwLjQ3NSw0OTAuMjE3LDI3MjAuNDc1LDUxMC4yMTcsMjcyMC40NzUsNTMwLjIxN0MyNzIwLjQ3NSw1NTAuMjE3LDI3MjAuNDc1LDU3MC4yMTcsMjcyMC40NzUsNTkwLjIxN0MyNzIwLjQ3NSw2MTAuMjE3LDI3MjAuNDc1LDYzMC4yMTcsMjcyMC40NzUsNjUwLjIxN0MyNzIwLjQ3NSw2NzAuMjE3LDI3MjAuNDc1LDY5MC4yMTcsMjcyMC40NzUsNzEwLjIxN0MyNzIwLjQ3NSw3MzAuMjE3LDI3MjAuNDc1LDc1MC4yMTcsMjcyMC40NzUsNzcwLjIxN0MyNzIwLjQ3NSw3OTAuMjE3LDI3MjAuNDc1LDgxMC4yMTcsMjcyMC40NzUsODMwLjIxN0MyNzIwLjQ3NSw4NTAuMjE3LDI3MjAuNDc1LDg3MC4yMTcsMjcyMC40NzUsODkwLjIxN0MyNzIwLjQ3NSw5MTAuMjE3LDI3MjAuNDc1LDkzMC4yMTcsMjcyMC40NzUsOTQzLjIxN0MyNzIwLjQ3NSw5NTYuMjE3LDI3MjAuNDc1LDk2Mi4yMTcsMjcyMC40NzUsOTY3LjU1QzI3MjAuNDc1LDk3Mi44ODMsMjcyMC40NzUsOTc3LjU1LDI3MjAuNDc1LDk3OS44ODNMMjcyMC40NzUsOTgyLjIxNyI+PC9wYXRoPjxwYXRoIG1hcmtlci1lbmQ9InVybCgjZ2VNZXJtYWlkT3V0cHV0LTE3NDA2MDg1NzkwNDVfZmxvd2NoYXJ0LXYyLXBvaW50RW5kKSIgc3R5bGU9IiIgY2xhc3M9ImVkZ2UtdGhpY2tuZXNzLW5vcm1hbCBlZGdlLXBhdHRlcm4tc29saWQgZWRnZS10aGlja25lc3Mtbm9ybWFsIGVkZ2UtcGF0dGVybi1zb2xpZCBmbG93Y2hhcnQtbGluayIgaWQ9IkxfUV9OXzI5IiBkPSJNMjY4NS43OTMsMTAzNC4yMTdMMjY3Ny4xMjMsMTA0MC4yMTdDMjY2OC40NTMsMTA0Ni4yMTcsMjY1MS4xMTIsMTA1OC4yMTcsMjU5NC4zMDYsMTA2OS41OTJDMjUzNy41LDEwODAuOTY4LDI0NDEuMjI5LDEwOTEuNzE5LDIzNDUuNjIxLDExMDIuMzk2QzIyNTAuMDEzLDExMTMuMDc0LDIxNTUuMDY3LDExMjMuNjc3LDIxMDcuNTk0LDExMjguOTc5TDIwNjAuMTIxLDExMzQuMjgiPjwvcGF0aD48cGF0aCBtYXJrZXItZW5kPSJ1cmwoI2dlTWVybWFpZE91dHB1dC0xNzQwNjA4NTc5MDQ1X2Zsb3djaGFydC12Mi1wb2ludEVuZCkiIHN0eWxlPSIiIGNsYXNzPSJlZGdlLXRoaWNrbmVzcy1ub3JtYWwgZWRnZS1wYXR0ZXJuLXNvbGlkIGVkZ2UtdGhpY2tuZXNzLW5vcm1hbCBlZGdlLXBhdHRlcm4tc29saWQgZmxvd2NoYXJ0LWxpbmsiIGlkPSJMX1FfTl8zMCIgZD0iTTI3NTIuMzQsMTAzNC4yMTdMMjc2MC4zMDYsMTA0MC4yMTdDMjc2OC4yNzMsMTA0Ni4yMTcsMjc4NC4yMDUsMTA1OC4yMTcsMjczMC4xNzIsMTA2OS43MjdDMjY3Ni4xMzksMTA4MS4yMzYsMjU1Mi4xNCwxMDkyLjI1NiwyNDI4LjgwNiwxMTAzLjIxN0MyMzA1LjQ3MSwxMTE0LjE3OCwyMTgyLjgwMSwxMTI1LjA4LDIxMjEuNDY1LDExMzAuNTMxTDIwNjAuMTMsMTEzNS45ODIiPjwvcGF0aD48cGF0aCBtYXJrZXItZW5kPSJ1cmwoI2dlTWVybWFpZE91dHB1dC0xNzQwNjA4NTc5MDQ1X2Zsb3djaGFydC12Mi1wb2ludEVuZCkiIHN0eWxlPSIiIGNsYXNzPSJlZGdlLXRoaWNrbmVzcy1ub3JtYWwgZWRnZS1wYXR0ZXJuLXNvbGlkIGVkZ2UtdGhpY2tuZXNzLW5vcm1hbCBlZGdlLXBhdHRlcm4tc29saWQgZmxvd2NoYXJ0LWxpbmsiIGlkPSJMX1FfTl8zMSIgZD0iTTI4MDEuNjE3LDEwMzIuNTUzTDI4MjQuNDIsMTAzOC44M0MyODQ3LjIyNCwxMDQ1LjEwOCwyODkyLjgzMSwxMDU3LjY2MiwyODQyLjExLDEwNjkuNTI1QzI3OTEuMzg5LDEwODEuMzg4LDI2NDQuMzQsMTA5Mi41NiwyNDk3Ljk1NiwxMTAzLjY4MUMyMzUxLjU3MywxMTE0LjgwMiwyMjA1Ljg1MywxMTI1Ljg3MywyMTMyLjk5NCwxMTMxLjQwOEwyMDYwLjEzNCwxMTM2Ljk0NCI+PC9wYXRoPjxwYXRoIG1hcmtlci1lbmQ9InVybCgjZ2VNZXJtYWlkT3V0cHV0LTE3NDA2MDg1NzkwNDVfZmxvd2NoYXJ0LXYyLXBvaW50RW5kKSIgbWFya2VyLXN0YXJ0PSJ1cmwoI2dlTWVybWFpZE91dHB1dC0xNzQwNjA4NTc5MDQ1X2Zsb3djaGFydC12Mi1wb2ludFN0YXJ0KSIgc3R5bGU9IiIgY2xhc3M9ImVkZ2UtdGhpY2tuZXNzLW5vcm1hbCBlZGdlLXBhdHRlcm4tc29saWQgZWRnZS10aGlja25lc3Mtbm9ybWFsIGVkZ2UtcGF0dGVybi1zb2xpZCBmbG93Y2hhcnQtbGluayIgaWQ9IkxfQ19SXzMyIiBkPSJNMTc1MS40MzEsMzQxLjk3MkwxOTM0LjgxNCwzNjMuMzQ2QzIxMTguMTk4LDM4NC43MiwyNDg0Ljk2Niw0MjcuNDY5LDI2NjguMzUsNDUxLjg0M0MyODUxLjczMyw0NzYuMjE3LDI4NTEuNzMzLDQ4Mi4yMTcsMjg1MS43MzMsNDg3LjU1QzI4NTEuNzMzLDQ5Mi44ODMsMjg1MS43MzMsNDk3LjU1LDI4NTEuNzMzLDQ5OS44ODNMMjg1MS43MzMsNTAyLjIxNyI+PC9wYXRoPjwvZz48ZyBjbGFzcz0iZWRnZUxhYmVscyI+PGc+PHJlY3Qgc3R5bGU9InN0cm9rZTogbm9uZSIgY2xhc3M9ImJhY2tncm91bmQiPjwvcmVjdD48L2c+PGcgdHJhbnNmb3JtPSJ0cmFuc2xhdGUoMTY1My43NTAwMjA5ODA4MzUsIDkyKSIgY2xhc3M9ImVkZ2VMYWJlbCI+PGcgdHJhbnNmb3JtPSJ0cmFuc2xhdGUoLTg3LjM2NjY2ODcwMTE3MTg4LCAtMTEpIiBjbGFzcz0ibGFiZWwiPjxnPjxyZWN0IGhlaWdodD0iMjIiIHdpZHRoPSIxNzQuNzMzMzM3NDAyMzQzNzUiIHk9Ii0yIiB4PSItMiIgc3R5bGU9IiIgY2xhc3M9ImJhY2tncm91bmQiPjwvcmVjdD48dGV4dCBzdHlsZT0iIiB5PSItMTAuMSI+PHRzcGFuIGR5PSIxLjFlbSIgeT0iLTAuMWVtIiB4PSIwIiBjbGFzcz0idGV4dC1vdXRlci10c3BhbiI+PHRzcGFuIGZvbnQtd2VpZ2h0PSJub3JtYWwiIGNsYXNzPSJ0ZXh0LWlubmVyLXRzcGFuIiBmb250LXN0eWxlPSJub3JtYWwiPkhUVFAvSFRUUFM8L3RzcGFuPjx0c3BhbiBmb250LXdlaWdodD0ibm9ybWFsIiBjbGFzcz0idGV4dC1pbm5lci10c3BhbiIgZm9udC1zdHlsZT0ibm9ybWFsIj4gUmVxdWVzdHM8L3RzcGFuPjwvdHNwYW4+PC90ZXh0PjwvZz48L2c+PC9nPjxnIGNsYXNzPSJlZGdlTGFiZWwiPjxnIHRyYW5zZm9ybT0idHJhbnNsYXRlKDAsIDApIiBjbGFzcz0ibGFiZWwiPjx0ZXh0IHk9Ii0xMC4xIj48dHNwYW4gZHk9IjEuMWVtIiB5PSItMC4xZW0iIHg9IjAiIGNsYXNzPSJ0ZXh0LW91dGVyLXRzcGFuIj48L3RzcGFuPjwvdGV4dD48L2c+PC9nPjxnIHRyYW5zZm9ybT0idHJhbnNsYXRlKDM2Mi43NjI0OTY5NDgyNDIyLCA2NTAuMjE2NjU5NTQ1ODk4NCkiIGNsYXNzPSJlZGdlTGFiZWwiPjxnIHRyYW5zZm9ybT0idHJhbnNsYXRlKC01Mi43MDgzMzIwNjE3Njc1OCwgLTExKSIgY2xhc3M9ImxhYmVsIj48Zz48cmVjdCBoZWlnaHQ9IjIyIiB3aWR0aD0iMTA1LjQxNjY2NDEyMzUzNTE2IiB5PSItMiIgeD0iLTIiIHN0eWxlPSIiIGNsYXNzPSJiYWNrZ3JvdW5kIj48L3JlY3Q+PHRleHQgc3R5bGU9IiIgeT0iLTEwLjEiPjx0c3BhbiBkeT0iMS4xZW0iIHk9Ii0wLjFlbSIgeD0iMCIgY2xhc3M9InRleHQtb3V0ZXItdHNwYW4iPjx0c3BhbiBmb250LXdlaWdodD0ibm9ybWFsIiBjbGFzcz0idGV4dC1pbm5lci10c3BhbiIgZm9udC1zdHlsZT0ibm9ybWFsIj5BdXRoZW50aWNhdGlvbjwvdHNwYW4+PC90c3Bhbj48L3RleHQ+PC9nPjwvZz48L2c+PGcgdHJhbnNmb3JtPSJ0cmFuc2xhdGUoOTguNDY2NjY3MTc1MjkyOTcsIDk1MC4yMTY2NTk1NDU4OTg0KSIgY2xhc3M9ImVkZ2VMYWJlbCI+PGcgdHJhbnNmb3JtPSJ0cmFuc2xhdGUoLTU5LjgwODMzNDM1MDU4NTk0LCAtMTEpIiBjbGFzcz0ibGFiZWwiPjxnPjxyZWN0IGhlaWdodD0iMjIiIHdpZHRoPSIxMTkuNjE2NjY4NzAxMTcxODgiIHk9Ii0yIiB4PSItMiIgc3R5bGU9IiIgY2xhc3M9ImJhY2tncm91bmQiPjwvcmVjdD48dGV4dCBzdHlsZT0iIiB5PSItMTAuMSI+PHRzcGFuIGR5PSIxLjFlbSIgeT0iLTAuMWVtIiB4PSIwIiBjbGFzcz0idGV4dC1vdXRlci10c3BhbiI+PHRzcGFuIGZvbnQtd2VpZ2h0PSJub3JtYWwiIGNsYXNzPSJ0ZXh0LWlubmVyLXRzcGFuIiBmb250LXN0eWxlPSJub3JtYWwiPk9UUDwvdHNwYW4+PHRzcGFuIGZvbnQtd2VpZ2h0PSJub3JtYWwiIGNsYXNzPSJ0ZXh0LWlubmVyLXRzcGFuIiBmb250LXN0eWxlPSJub3JtYWwiPiBWZXJpZmljYXRpb248L3RzcGFuPjwvdHNwYW4+PC90ZXh0PjwvZz48L2c+PC9nPjxnIHRyYW5zZm9ybT0idHJhbnNsYXRlKDMyNy42OTk5OTY5NDgyNDIyLCA5NTAuMjE2NjU5NTQ1ODk4NCkiIGNsYXNzPSJlZGdlTGFiZWwiPjxnIHRyYW5zZm9ybT0idHJhbnNsYXRlKC03OS40NDE2NjU2NDk0MTQwNiwgLTExKSIgY2xhc3M9ImxhYmVsIj48Zz48cmVjdCBoZWlnaHQ9IjIyIiB3aWR0aD0iMTU4Ljg4MzMzMTI5ODgyODEyIiB5PSItMiIgeD0iLTIiIHN0eWxlPSIiIGNsYXNzPSJiYWNrZ3JvdW5kIj48L3JlY3Q+PHRleHQgc3R5bGU9IiIgeT0iLTEwLjEiPjx0c3BhbiBkeT0iMS4xZW0iIHk9Ii0wLjFlbSIgeD0iMCIgY2xhc3M9InRleHQtb3V0ZXItdHNwYW4iPjx0c3BhbiBmb250LXdlaWdodD0ibm9ybWFsIiBjbGFzcz0idGV4dC1pbm5lci10c3BhbiIgZm9udC1zdHlsZT0ibm9ybWFsIj5TZXNzaW9uPC90c3Bhbj48dHNwYW4gZm9udC13ZWlnaHQ9Im5vcm1hbCIgY2xhc3M9InRleHQtaW5uZXItdHNwYW4iIGZvbnQtc3R5bGU9Im5vcm1hbCI+IE1hbmFnZW1lbnQ8L3RzcGFuPjwvdHNwYW4+PC90ZXh0PjwvZz48L2c+PC9nPjxnIHRyYW5zZm9ybT0idHJhbnNsYXRlKDgzMy4zNzkxNzEzNzE0NiwgNzEwLjIxNjY1OTU0NTg5ODQpIiBjbGFzcz0iZWRnZUxhYmVsIj48ZyB0cmFuc2Zvcm09InRyYW5zbGF0ZSgtODkuMjMzMzM3NDAyMzQzNzUsIC0xMSkiIGNsYXNzPSJsYWJlbCI+PGc+PHJlY3QgaGVpZ2h0PSIyMiIgd2lkdGg9IjE3OC40NjY2NzQ4MDQ2ODc1IiB5PSItMiIgeD0iLTIiIHN0eWxlPSIiIGNsYXNzPSJiYWNrZ3JvdW5kIj48L3JlY3Q+PHRleHQgc3R5bGU9IiIgeT0iLTEwLjEiPjx0c3BhbiBkeT0iMS4xZW0iIHk9Ii0wLjFlbSIgeD0iMCIgY2xhc3M9InRleHQtb3V0ZXItdHNwYW4iPjx0c3BhbiBmb250LXdlaWdodD0ibm9ybWFsIiBjbGFzcz0idGV4dC1pbm5lci10c3BhbiIgZm9udC1zdHlsZT0ibm9ybWFsIj5FcXVpcG1lbnQ8L3RzcGFuPjx0c3BhbiBmb250LXdlaWdodD0ibm9ybWFsIiBjbGFzcz0idGV4dC1pbm5lci10c3BhbiIgZm9udC1zdHlsZT0ibm9ybWFsIj4gTWFuYWdlbWVudDwvdHNwYW4+PC90c3Bhbj48L3RleHQ+PC9nPjwvZz48L2c+PGcgdHJhbnNmb3JtPSJ0cmFuc2xhdGUoMTI1MC42MDgzNDUwMzE3MzgzLCA3MTAuMjE2NjU5NTQ1ODk4NCkiIGNsYXNzPSJlZGdlTGFiZWwiPjxnIHRyYW5zZm9ybT0idHJhbnNsYXRlKC04Ny4wMDgzMzEyOTg4MjgxMiwgLTExKSIgY2xhc3M9ImxhYmVsIj48Zz48cmVjdCBoZWlnaHQ9IjIyIiB3aWR0aD0iMTc0LjAxNjY2MjU5NzY1NjI1IiB5PSItMiIgeD0iLTIiIHN0eWxlPSIiIGNsYXNzPSJiYWNrZ3JvdW5kIj48L3JlY3Q+PHRleHQgc3R5bGU9IiIgeT0iLTEwLjEiPjx0c3BhbiBkeT0iMS4xZW0iIHk9Ii0wLjFlbSIgeD0iMCIgY2xhc3M9InRleHQtb3V0ZXItdHNwYW4iPjx0c3BhbiBmb250LXdlaWdodD0ibm9ybWFsIiBjbGFzcz0idGV4dC1pbm5lci10c3BhbiIgZm9udC1zdHlsZT0ibm9ybWFsIj5QZXJzb25uZWw8L3RzcGFuPjx0c3BhbiBmb250LXdlaWdodD0ibm9ybWFsIiBjbGFzcz0idGV4dC1pbm5lci10c3BhbiIgZm9udC1zdHlsZT0ibm9ybWFsIj4gTWFuYWdlbWVudDwvdHNwYW4+PC90c3Bhbj48L3RleHQ+PC9nPjwvZz48L2c+PGcgdHJhbnNmb3JtPSJ0cmFuc2xhdGUoMTUxNi4xOTE2ODI4MTU1NTE4LCA3MTAuMjE2NjU5NTQ1ODk4NCkiIGNsYXNzPSJlZGdlTGFiZWwiPjxnIHRyYW5zZm9ybT0idHJhbnNsYXRlKC02NS4yMDgzMjgyNDcwNzAzMSwgLTExKSIgY2xhc3M9ImxhYmVsIj48Zz48cmVjdCBoZWlnaHQ9IjIyIiB3aWR0aD0iMTMwLjQxNjY2NDEyMzUzNTE2IiB5PSItMiIgeD0iLTIiIHN0eWxlPSIiIGNsYXNzPSJiYWNrZ3JvdW5kIj48L3JlY3Q+PHRleHQgc3R5bGU9IiIgeT0iLTEwLjEiPjx0c3BhbiBkeT0iMS4xZW0iIHk9Ii0wLjFlbSIgeD0iMCIgY2xhc3M9InRleHQtb3V0ZXItdHNwYW4iPjx0c3BhbiBmb250LXdlaWdodD0ibm9ybWFsIiBjbGFzcz0idGV4dC1pbm5lci10c3BhbiIgZm9udC1zdHlsZT0ibm9ybWFsIj5Vbml0PC90c3Bhbj48dHNwYW4gZm9udC13ZWlnaHQ9Im5vcm1hbCIgY2xhc3M9InRleHQtaW5uZXItdHNwYW4iIGZvbnQtc3R5bGU9Im5vcm1hbCI+IE1hbmFnZW1lbnQ8L3RzcGFuPjwvdHNwYW4+PC90ZXh0PjwvZz48L2c+PC9nPjxnIHRyYW5zZm9ybT0idHJhbnNsYXRlKDIwNTYuODc5MTg2NjMwMjQ5LCA0NzAuMjE2NjU5NTQ1ODk4NDQpIiBjbGFzcz0iZWRnZUxhYmVsIj48ZyB0cmFuc2Zvcm09InRyYW5zbGF0ZSgtMzYuNjkxNjY1NjQ5NDE0MDYsIC0xMSkiIGNsYXNzPSJsYWJlbCI+PGc+PHJlY3QgaGVpZ2h0PSIyMiIgd2lkdGg9IjczLjM4MzMzMTI5ODgyODEyIiB5PSItMiIgeD0iLTIiIHN0eWxlPSIiIGNsYXNzPSJiYWNrZ3JvdW5kIj48L3JlY3Q+PHRleHQgc3R5bGU9IiIgeT0iLTEwLjEiPjx0c3BhbiBkeT0iMS4xZW0iIHk9Ii0wLjFlbSIgeD0iMCIgY2xhc3M9InRleHQtb3V0ZXItdHNwYW4iPjx0c3BhbiBmb250LXdlaWdodD0ibm9ybWFsIiBjbGFzcz0idGV4dC1pbm5lci10c3BhbiIgZm9udC1zdHlsZT0ibm9ybWFsIj5SZXBvcnRpbmc8L3RzcGFuPjwvdHNwYW4+PC90ZXh0PjwvZz48L2c+PC9nPjxnIHRyYW5zZm9ybT0idHJhbnNsYXRlKDY2NC4zMTY2NjM3NDIwNjU0LCAxMDcwLjIxNjY1OTU0NTg5ODQpIiBjbGFzcz0iZWRnZUxhYmVsIj48ZyB0cmFuc2Zvcm09InRyYW5zbGF0ZSgtNDEuMTMzMzM1MTEzNTI1MzksIC0xMSkiIGNsYXNzPSJsYWJlbCI+PGc+PHJlY3QgaGVpZ2h0PSIyMiIgd2lkdGg9IjgyLjI2NjY3MDIyNzA1MDc4IiB5PSItMiIgeD0iLTIiIHN0eWxlPSIiIGNsYXNzPSJiYWNrZ3JvdW5kIj48L3JlY3Q+PHRleHQgc3R5bGU9IiIgeT0iLTEwLjEiPjx0c3BhbiBkeT0iMS4xZW0iIHk9Ii0wLjFlbSIgeD0iMCIgY2xhc3M9InRleHQtb3V0ZXItdHNwYW4iPjx0c3BhbiBmb250LXdlaWdodD0ibm9ybWFsIiBjbGFzcz0idGV4dC1pbm5lci10c3BhbiIgZm9udC1zdHlsZT0ibm9ybWFsIj5WZXJpZmljYXRpb248L3RzcGFuPjwvdHNwYW4+PC90ZXh0PjwvZz48L2c+PC9nPjxnIHRyYW5zZm9ybT0idHJhbnNsYXRlKDkwMy43MzMzMzU0OTQ5OTUxLCAxMDcwLjIxNjY1OTU0NTg5ODQpIiBjbGFzcz0iZWRnZUxhYmVsIj48ZyB0cmFuc2Zvcm09InRyYW5zbGF0ZSgtNDEuMTMzMzM1MTEzNTI1MzksIC0xMSkiIGNsYXNzPSJsYWJlbCI+PGc+PHJlY3QgaGVpZ2h0PSIyMiIgd2lkdGg9IjgyLjI2NjY3MDIyNzA1MDc4IiB5PSItMiIgeD0iLTIiIHN0eWxlPSIiIGNsYXNzPSJiYWNrZ3JvdW5kIj48L3JlY3Q+PHRleHQgc3R5bGU9IiIgeT0iLTEwLjEiPjx0c3BhbiBkeT0iMS4xZW0iIHk9Ii0wLjFlbSIgeD0iMCIgY2xhc3M9InRleHQtb3V0ZXItdHNwYW4iPjx0c3BhbiBmb250LXdlaWdodD0ibm9ybWFsIiBjbGFzcz0idGV4dC1pbm5lci10c3BhbiIgZm9udC1zdHlsZT0ibm9ybWFsIj5WZXJpZmljYXRpb248L3RzcGFuPjwvdHNwYW4+PC90ZXh0PjwvZz48L2c+PC9nPjxnIHRyYW5zZm9ybT0idHJhbnNsYXRlKDExODEuMjMzMzQzMTI0Mzg5NiwgMTA3MC4yMTY2NTk1NDU4OTg0KSIgY2xhc3M9ImVkZ2VMYWJlbCI+PGcgdHJhbnNmb3JtPSJ0cmFuc2xhdGUoLTQxLjEzMzMzNTExMzUyNTM5LCAtMTEpIiBjbGFzcz0ibGFiZWwiPjxnPjxyZWN0IGhlaWdodD0iMjIiIHdpZHRoPSI4Mi4yNjY2NzAyMjcwNTA3OCIgeT0iLTIiIHg9Ii0yIiBzdHlsZT0iIiBjbGFzcz0iYmFja2dyb3VuZCI+PC9yZWN0Pjx0ZXh0IHN0eWxlPSIiIHk9Ii0xMC4xIj48dHNwYW4gZHk9IjEuMWVtIiB5PSItMC4xZW0iIHg9IjAiIGNsYXNzPSJ0ZXh0LW91dGVyLXRzcGFuIj48dHNwYW4gZm9udC13ZWlnaHQ9Im5vcm1hbCIgY2xhc3M9InRleHQtaW5uZXItdHNwYW4iIGZvbnQtc3R5bGU9Im5vcm1hbCI+VmVyaWZpY2F0aW9uPC90c3Bhbj48L3RzcGFuPjwvdGV4dD48L2c+PC9nPjwvZz48ZyB0cmFuc2Zvcm09InRyYW5zbGF0ZSgxMDQyLjQ4MzMzOTMwOTY5MjQsIDEwNzAuMjE2NjU5NTQ1ODk4NCkiIGNsYXNzPSJlZGdlTGFiZWwiPjxnIHRyYW5zZm9ybT0idHJhbnNsYXRlKC03Ny42MTY2Njg3MDExNzE4OCwgLTExKSIgY2xhc3M9ImxhYmVsIj48Zz48cmVjdCBoZWlnaHQ9IjIyIiB3aWR0aD0iMTU1LjIzMzMzNzQwMjM0Mzc1IiB5PSItMiIgeD0iLTIiIHN0eWxlPSIiIGNsYXNzPSJiYWNrZ3JvdW5kIj48L3JlY3Q+PHRleHQgc3R5bGU9IiIgeT0iLTEwLjEiPjx0c3BhbiBkeT0iMS4xZW0iIHk9Ii0wLjFlbSIgeD0iMCIgY2xhc3M9InRleHQtb3V0ZXItdHNwYW4iPjx0c3BhbiBmb250LXdlaWdodD0ibm9ybWFsIiBjbGFzcz0idGV4dC1pbm5lci10c3BhbiIgZm9udC1zdHlsZT0ibm9ybWFsIj5EYXRhYmFzZTwvdHNwYW4+PHRzcGFuIGZvbnQtd2VpZ2h0PSJub3JtYWwiIGNsYXNzPSJ0ZXh0LWlubmVyLXRzcGFuIiBmb250LXN0eWxlPSJub3JtYWwiPiBPcGVyYXRpb25zPC90c3Bhbj48L3RzcGFuPjwvdGV4dD48L2c+PC9nPjwvZz48ZyB0cmFuc2Zvcm09InRyYW5zbGF0ZSgxMzE5Ljk4MzM0NjkzOTA4NywgMTA3MC4yMTY2NTk1NDU4OTg0KSIgY2xhc3M9ImVkZ2VMYWJlbCI+PGcgdHJhbnNmb3JtPSJ0cmFuc2xhdGUoLTc3LjYxNjY2ODcwMTE3MTg4LCAtMTEpIiBjbGFzcz0ibGFiZWwiPjxnPjxyZWN0IGhlaWdodD0iMjIiIHdpZHRoPSIxNTUuMjMzMzM3NDAyMzQzNzUiIHk9Ii0yIiB4PSItMiIgc3R5bGU9IiIgY2xhc3M9ImJhY2tncm91bmQiPjwvcmVjdD48dGV4dCBzdHlsZT0iIiB5PSItMTAuMSI+PHRzcGFuIGR5PSIxLjFlbSIgeT0iLTAuMWVtIiB4PSIwIiBjbGFzcz0idGV4dC1vdXRlci10c3BhbiI+PHRzcGFuIGZvbnQtd2VpZ2h0PSJub3JtYWwiIGNsYXNzPSJ0ZXh0LWlubmVyLXRzcGFuIiBmb250LXN0eWxlPSJub3JtYWwiPkRhdGFiYXNlPC90c3Bhbj48dHNwYW4gZm9udC13ZWlnaHQ9Im5vcm1hbCIgY2xhc3M9InRleHQtaW5uZXItdHNwYW4iIGZvbnQtc3R5bGU9Im5vcm1hbCI+IE9wZXJhdGlvbnM8L3RzcGFuPjwvdHNwYW4+PC90ZXh0PjwvZz48L2c+PC9nPjxnIHRyYW5zZm9ybT0idHJhbnNsYXRlKDE1MTYuMTkxNjgyODE1NTUxOCwgMTA3MC4yMTY2NTk1NDU4OTg0KSIgY2xhc3M9ImVkZ2VMYWJlbCI+PGcgdHJhbnNmb3JtPSJ0cmFuc2xhdGUoLTc3LjYxNjY2ODcwMTE3MTg4LCAtMTEpIiBjbGFzcz0ibGFiZWwiPjxnPjxyZWN0IGhlaWdodD0iMjIiIHdpZHRoPSIxNTUuMjMzMzM3NDAyMzQzNzUiIHk9Ii0yIiB4PSItMiIgc3R5bGU9IiIgY2xhc3M9ImJhY2tncm91bmQiPjwvcmVjdD48dGV4dCBzdHlsZT0iIiB5PSItMTAuMSI+PHRzcGFuIGR5PSIxLjFlbSIgeT0iLTAuMWVtIiB4PSIwIiBjbGFzcz0idGV4dC1vdXRlci10c3BhbiI+PHRzcGFuIGZvbnQtd2VpZ2h0PSJub3JtYWwiIGNsYXNzPSJ0ZXh0LWlubmVyLXRzcGFuIiBmb250LXN0eWxlPSJub3JtYWwiPkRhdGFiYXNlPC90c3Bhbj48dHNwYW4gZm9udC13ZWlnaHQ9Im5vcm1hbCIgY2xhc3M9InRleHQtaW5uZXItdHNwYW4iIGZvbnQtc3R5bGU9Im5vcm1hbCI+IE9wZXJhdGlvbnM8L3RzcGFuPjwvdHNwYW4+PC90ZXh0PjwvZz48L2c+PC9nPjxnIHRyYW5zZm9ybT0idHJhbnNsYXRlKDE2MzQuMTE2NjgyMDUyNjEyMywgODMwLjIxNjY1OTU0NTg5ODQpIiBjbGFzcz0iZWRnZUxhYmVsIj48ZyB0cmFuc2Zvcm09InRyYW5zbGF0ZSgtNzcuNjE2NjY4NzAxMTcxODgsIC0xMSkiIGNsYXNzPSJsYWJlbCI+PGc+PHJlY3QgaGVpZ2h0PSIyMiIgd2lkdGg9IjE1NS4yMzMzMzc0MDIzNDM3NSIgeT0iLTIiIHg9Ii0yIiBzdHlsZT0iIiBjbGFzcz0iYmFja2dyb3VuZCI+PC9yZWN0Pjx0ZXh0IHN0eWxlPSIiIHk9Ii0xMC4xIj48dHNwYW4gZHk9IjEuMWVtIiB5PSItMC4xZW0iIHg9IjAiIGNsYXNzPSJ0ZXh0LW91dGVyLXRzcGFuIj48dHNwYW4gZm9udC13ZWlnaHQ9Im5vcm1hbCIgY2xhc3M9InRleHQtaW5uZXItdHNwYW4iIGZvbnQtc3R5bGU9Im5vcm1hbCI+RGF0YWJhc2U8L3RzcGFuPjx0c3BhbiBmb250LXdlaWdodD0ibm9ybWFsIiBjbGFzcz0idGV4dC1pbm5lci10c3BhbiIgZm9udC1zdHlsZT0ibm9ybWFsIj4gT3BlcmF0aW9uczwvdHNwYW4+PC90c3Bhbj48L3RleHQ+PC9nPjwvZz48L2c+PGcgdHJhbnNmb3JtPSJ0cmFuc2xhdGUoNTI5LjA4MzMyODI0NzA3MDMsIDEwMTAuMjE2NjU5NTQ1ODk4NCkiIGNsYXNzPSJlZGdlTGFiZWwiPjxnIHRyYW5zZm9ybT0idHJhbnNsYXRlKC03Ny42MTY2Njg3MDExNzE4OCwgLTExKSIgY2xhc3M9ImxhYmVsIj48Zz48cmVjdCBoZWlnaHQ9IjIyIiB3aWR0aD0iMTU1LjIzMzMzNzQwMjM0Mzc1IiB5PSItMiIgeD0iLTIiIHN0eWxlPSIiIGNsYXNzPSJiYWNrZ3JvdW5kIj48L3JlY3Q+PHRleHQgc3R5bGU9IiIgeT0iLTEwLjEiPjx0c3BhbiBkeT0iMS4xZW0iIHk9Ii0wLjFlbSIgeD0iMCIgY2xhc3M9InRleHQtb3V0ZXItdHNwYW4iPjx0c3BhbiBmb250LXdlaWdodD0ibm9ybWFsIiBjbGFzcz0idGV4dC1pbm5lci10c3BhbiIgZm9udC1zdHlsZT0ibm9ybWFsIj5EYXRhYmFzZTwvdHNwYW4+PHRzcGFuIGZvbnQtd2VpZ2h0PSJub3JtYWwiIGNsYXNzPSJ0ZXh0LWlubmVyLXRzcGFuIiBmb250LXN0eWxlPSJub3JtYWwiPiBPcGVyYXRpb25zPC90c3Bhbj48L3RzcGFuPjwvdGV4dD48L2c+PC9nPjwvZz48ZyB0cmFuc2Zvcm09InRyYW5zbGF0ZSgzMjcuNjk5OTk2OTQ4MjQyMiwgMTA3MC4yMTY2NTk1NDU4OTg0KSIgY2xhc3M9ImVkZ2VMYWJlbCI+PGcgdHJhbnNmb3JtPSJ0cmFuc2xhdGUoLTc3LjYxNjY2ODcwMTE3MTg4LCAtMTEpIiBjbGFzcz0ibGFiZWwiPjxnPjxyZWN0IGhlaWdodD0iMjIiIHdpZHRoPSIxNTUuMjMzMzM3NDAyMzQzNzUiIHk9Ii0yIiB4PSItMiIgc3R5bGU9IiIgY2xhc3M9ImJhY2tncm91bmQiPjwvcmVjdD48dGV4dCBzdHlsZT0iIiB5PSItMTAuMSI+PHRzcGFuIGR5PSIxLjFlbSIgeT0iLTAuMWVtIiB4PSIwIiBjbGFzcz0idGV4dC1vdXRlci10c3BhbiI+PHRzcGFuIGZvbnQtd2VpZ2h0PSJub3JtYWwiIGNsYXNzPSJ0ZXh0LWlubmVyLXRzcGFuIiBmb250LXN0eWxlPSJub3JtYWwiPkRhdGFiYXNlPC90c3Bhbj48dHNwYW4gZm9udC13ZWlnaHQ9Im5vcm1hbCIgY2xhc3M9InRleHQtaW5uZXItdHNwYW4iIGZvbnQtc3R5bGU9Im5vcm1hbCI+IE9wZXJhdGlvbnM8L3RzcGFuPjwvdHNwYW4+PC90ZXh0PjwvZz48L2c+PC9nPjxnIHRyYW5zZm9ybT0idHJhbnNsYXRlKDE3ODUuODMzMzQ5MjI3OTA1MywgNTkwLjIxNjY1OTU0NTg5ODQpIiBjbGFzcz0iZWRnZUxhYmVsIj48ZyB0cmFuc2Zvcm09InRyYW5zbGF0ZSgtNTcuNTkxNjY3MTc1MjkyOTcsIC0xMSkiIGNsYXNzPSJsYWJlbCI+PGc+PHJlY3QgaGVpZ2h0PSIyMiIgd2lkdGg9IjExNS4xODMzMzQzNTA1ODU5NCIgeT0iLTIiIHg9Ii0yIiBzdHlsZT0iIiBjbGFzcz0iYmFja2dyb3VuZCI+PC9yZWN0Pjx0ZXh0IHN0eWxlPSIiIHk9Ii0xMC4xIj48dHNwYW4gZHk9IjEuMWVtIiB5PSItMC4xZW0iIHg9IjAiIGNsYXNzPSJ0ZXh0LW91dGVyLXRzcGFuIj48dHNwYW4gZm9udC13ZWlnaHQ9Im5vcm1hbCIgY2xhc3M9InRleHQtaW5uZXItdHNwYW4iIGZvbnQtc3R5bGU9Im5vcm1hbCI+R2VuZXJhdGU8L3RzcGFuPjx0c3BhbiBmb250LXdlaWdodD0ibm9ybWFsIiBjbGFzcz0idGV4dC1pbm5lci10c3BhbiIgZm9udC1zdHlsZT0ibm9ybWFsIj4gUERGczwvdHNwYW4+PC90c3Bhbj48L3RleHQ+PC9nPjwvZz48L2c+PGcgdHJhbnNmb3JtPSJ0cmFuc2xhdGUoMjA3My4yNzUwMTQ4NzczMTkzLCA1OTAuMjE2NjU5NTQ1ODk4NCkiIGNsYXNzPSJlZGdlTGFiZWwiPjxnIHRyYW5zZm9ybT0idHJhbnNsYXRlKC02NC42OTk5OTY5NDgyNDIxOSwgLTExKSIgY2xhc3M9ImxhYmVsIj48Zz48cmVjdCBoZWlnaHQ9IjIyIiB3aWR0aD0iMTI5LjM5OTk5Mzg5NjQ4NDM4IiB5PSItMiIgeD0iLTIiIHN0eWxlPSIiIGNsYXNzPSJiYWNrZ3JvdW5kIj48L3JlY3Q+PHRleHQgc3R5bGU9IiIgeT0iLTEwLjEiPjx0c3BhbiBkeT0iMS4xZW0iIHk9Ii0wLjFlbSIgeD0iMCIgY2xhc3M9InRleHQtb3V0ZXItdHNwYW4iPjx0c3BhbiBmb250LXdlaWdodD0ibm9ybWFsIiBjbGFzcz0idGV4dC1pbm5lci10c3BhbiIgZm9udC1zdHlsZT0ibm9ybWFsIj5EaWdpdGFsPC90c3Bhbj48dHNwYW4gZm9udC13ZWlnaHQ9Im5vcm1hbCIgY2xhc3M9InRleHQtaW5uZXItdHNwYW4iIGZvbnQtc3R5bGU9Im5vcm1hbCI+IFNpZ25hdHVyZXM8L3RzcGFuPjwvdHNwYW4+PC90ZXh0PjwvZz48L2c+PC9nPjxnIHRyYW5zZm9ybT0idHJhbnNsYXRlKDIzMzguNTY2Njc5MDAwODU0NSwgNTkwLjIxNjY1OTU0NTg5ODQpIiBjbGFzcz0iZWRnZUxhYmVsIj48ZyB0cmFuc2Zvcm09InRyYW5zbGF0ZSgtNDkuNjY2NjY0MTIzNTM1MTU2LCAtMTEpIiBjbGFzcz0ibGFiZWwiPjxnPjxyZWN0IGhlaWdodD0iMjIiIHdpZHRoPSI5OS4zMzMzMjgyNDcwNzAzMSIgeT0iLTIiIHg9Ii0yIiBzdHlsZT0iIiBjbGFzcz0iYmFja2dyb3VuZCI+PC9yZWN0Pjx0ZXh0IHN0eWxlPSIiIHk9Ii0xMC4xIj48dHNwYW4gZHk9IjEuMWVtIiB5PSItMC4xZW0iIHg9IjAiIGNsYXNzPSJ0ZXh0LW91dGVyLXRzcGFuIj48dHNwYW4gZm9udC13ZWlnaHQ9Im5vcm1hbCIgY2xhc3M9InRleHQtaW5uZXItdHNwYW4iIGZvbnQtc3R5bGU9Im5vcm1hbCI+TDE8L3RzcGFuPjx0c3BhbiBmb250LXdlaWdodD0ibm9ybWFsIiBjbGFzcz0idGV4dC1pbm5lci10c3BhbiIgZm9udC1zdHlsZT0ibm9ybWFsIj4gTW9kZXJhdG9yPC90c3Bhbj48L3RzcGFuPjwvdGV4dD48L2c+PC9nPjwvZz48ZyB0cmFuc2Zvcm09InRyYW5zbGF0ZSgyMjE2LjgyOTE3NTk0OTA5NjcsIDcxMC4yMTY2NTk1NDU4OTg0KSIgY2xhc3M9ImVkZ2VMYWJlbCI+PGcgdHJhbnNmb3JtPSJ0cmFuc2xhdGUoLTQ5LjY2NjY2NDEyMzUzNTE1NiwgLTExKSIgY2xhc3M9ImxhYmVsIj48Zz48cmVjdCBoZWlnaHQ9IjIyIiB3aWR0aD0iOTkuMzMzMzI4MjQ3MDcwMzEiIHk9Ii0yIiB4PSItMiIgc3R5bGU9IiIgY2xhc3M9ImJhY2tncm91bmQiPjwvcmVjdD48dGV4dCBzdHlsZT0iIiB5PSItMTAuMSI+PHRzcGFuIGR5PSIxLjFlbSIgeT0iLTAuMWVtIiB4PSIwIiBjbGFzcz0idGV4dC1vdXRlci10c3BhbiI+PHRzcGFuIGZvbnQtd2VpZ2h0PSJub3JtYWwiIGNsYXNzPSJ0ZXh0LWlubmVyLXRzcGFuIiBmb250LXN0eWxlPSJub3JtYWwiPkwyPC90c3Bhbj48dHNwYW4gZm9udC13ZWlnaHQ9Im5vcm1hbCIgY2xhc3M9InRleHQtaW5uZXItdHNwYW4iIGZvbnQtc3R5bGU9Im5vcm1hbCI+IE1vZGVyYXRvcjwvdHNwYW4+PC90c3Bhbj48L3RleHQ+PC9nPjwvZz48L2c+PGcgdHJhbnNmb3JtPSJ0cmFuc2xhdGUoMjE1Mi4wNDU4NDMxMjQzODk2LCA4MzAuMjE2NjU5NTQ1ODk4NCkiIGNsYXNzPSJlZGdlTGFiZWwiPjxnIHRyYW5zZm9ybT0idHJhbnNsYXRlKC00OS42NjY2NjQxMjM1MzUxNTYsIC0xMSkiIGNsYXNzPSJsYWJlbCI+PGc+PHJlY3QgaGVpZ2h0PSIyMiIgd2lkdGg9Ijk5LjMzMzMyODI0NzA3MDMxIiB5PSItMiIgeD0iLTIiIHN0eWxlPSIiIGNsYXNzPSJiYWNrZ3JvdW5kIj48L3JlY3Q+PHRleHQgc3R5bGU9IiIgeT0iLTEwLjEiPjx0c3BhbiBkeT0iMS4xZW0iIHk9Ii0wLjFlbSIgeD0iMCIgY2xhc3M9InRleHQtb3V0ZXItdHNwYW4iPjx0c3BhbiBmb250LXdlaWdodD0ibm9ybWFsIiBjbGFzcz0idGV4dC1pbm5lci10c3BhbiIgZm9udC1zdHlsZT0ibm9ybWFsIj5MMzwvdHNwYW4+PHRzcGFuIGZvbnQtd2VpZ2h0PSJub3JtYWwiIGNsYXNzPSJ0ZXh0LWlubmVyLXRzcGFuIiBmb250LXN0eWxlPSJub3JtYWwiPiBNb2RlcmF0b3I8L3RzcGFuPjwvdHNwYW4+PC90ZXh0PjwvZz48L2c+PC9nPjxnIHRyYW5zZm9ybT0idHJhbnNsYXRlKDIwNTEuMTI1MDEzMzUxNDQwNCwgOTUwLjIxNjY1OTU0NTg5ODQpIiBjbGFzcz0iZWRnZUxhYmVsIj48ZyB0cmFuc2Zvcm09InRyYW5zbGF0ZSgtNDkuNjY2NjY0MTIzNTM1MTU2LCAtMTEpIiBjbGFzcz0ibGFiZWwiPjxnPjxyZWN0IGhlaWdodD0iMjIiIHdpZHRoPSI5OS4zMzMzMjgyNDcwNzAzMSIgeT0iLTIiIHg9Ii0yIiBzdHlsZT0iIiBjbGFzcz0iYmFja2dyb3VuZCI+PC9yZWN0Pjx0ZXh0IHN0eWxlPSIiIHk9Ii0xMC4xIj48dHNwYW4gZHk9IjEuMWVtIiB5PSItMC4xZW0iIHg9IjAiIGNsYXNzPSJ0ZXh0LW91dGVyLXRzcGFuIj48dHNwYW4gZm9udC13ZWlnaHQ9Im5vcm1hbCIgY2xhc3M9InRleHQtaW5uZXItdHNwYW4iIGZvbnQtc3R5bGU9Im5vcm1hbCI+TDQ8L3RzcGFuPjx0c3BhbiBmb250LXdlaWdodD0ibm9ybWFsIiBjbGFzcz0idGV4dC1pbm5lci10c3BhbiIgZm9udC1zdHlsZT0ibm9ybWFsIj4gTW9kZXJhdG9yPC90c3Bhbj48L3RzcGFuPjwvdGV4dD48L2c+PC9nPjwvZz48ZyB0cmFuc2Zvcm09InRyYW5zbGF0ZSgyNTMxLjc2MjUwMjY3MDI4OCwgODkwLjIxNjY1OTU0NTg5ODQpIiBjbGFzcz0iZWRnZUxhYmVsIj48ZyB0cmFuc2Zvcm09InRyYW5zbGF0ZSgtNzIuMjc0OTkzODk2NDg0MzgsIC0xMSkiIGNsYXNzPSJsYWJlbCI+PGc+PHJlY3QgaGVpZ2h0PSIyMiIgd2lkdGg9IjE0NC41NDk5ODc3OTI5Njg3NSIgeT0iLTIiIHg9Ii0yIiBzdHlsZT0iIiBjbGFzcz0iYmFja2dyb3VuZCI+PC9yZWN0Pjx0ZXh0IHN0eWxlPSIiIHk9Ii0xMC4xIj48dHNwYW4gZHk9IjEuMWVtIiB5PSItMC4xZW0iIHg9IjAiIGNsYXNzPSJ0ZXh0LW91dGVyLXRzcGFuIj48dHNwYW4gZm9udC13ZWlnaHQ9Im5vcm1hbCIgY2xhc3M9InRleHQtaW5uZXItdHNwYW4iIGZvbnQtc3R5bGU9Im5vcm1hbCI+U3RvcmU8L3RzcGFuPjx0c3BhbiBmb250LXdlaWdodD0ibm9ybWFsIiBjbGFzcz0idGV4dC1pbm5lci10c3BhbiIgZm9udC1zdHlsZT0ibm9ybWFsIj4gUmVwb3J0PC90c3Bhbj48dHNwYW4gZm9udC13ZWlnaHQ9Im5vcm1hbCIgY2xhc3M9InRleHQtaW5uZXItdHNwYW4iIGZvbnQtc3R5bGU9Im5vcm1hbCI+IFN0YXR1czwvdHNwYW4+PC90c3Bhbj48L3RleHQ+PC9nPjwvZz48L2c+PGcgdHJhbnNmb3JtPSJ0cmFuc2xhdGUoMjM2My44ODc1MDI2NzAyODgsIDk1MC4yMTY2NTk1NDU4OTg0KSIgY2xhc3M9ImVkZ2VMYWJlbCI+PGcgdHJhbnNmb3JtPSJ0cmFuc2xhdGUoLTcyLjI3NDk5Mzg5NjQ4NDM4LCAtMTEpIiBjbGFzcz0ibGFiZWwiPjxnPjxyZWN0IGhlaWdodD0iMjIiIHdpZHRoPSIxNDQuNTQ5OTg3NzkyOTY4NzUiIHk9Ii0yIiB4PSItMiIgc3R5bGU9IiIgY2xhc3M9ImJhY2tncm91bmQiPjwvcmVjdD48dGV4dCBzdHlsZT0iIiB5PSItMTAuMSI+PHRzcGFuIGR5PSIxLjFlbSIgeT0iLTAuMWVtIiB4PSIwIiBjbGFzcz0idGV4dC1vdXRlci10c3BhbiI+PHRzcGFuIGZvbnQtd2VpZ2h0PSJub3JtYWwiIGNsYXNzPSJ0ZXh0LWlubmVyLXRzcGFuIiBmb250LXN0eWxlPSJub3JtYWwiPlN0b3JlPC90c3Bhbj48dHNwYW4gZm9udC13ZWlnaHQ9Im5vcm1hbCIgY2xhc3M9InRleHQtaW5uZXItdHNwYW4iIGZvbnQtc3R5bGU9Im5vcm1hbCI+IFJlcG9ydDwvdHNwYW4+PHRzcGFuIGZvbnQtd2VpZ2h0PSJub3JtYWwiIGNsYXNzPSJ0ZXh0LWlubmVyLXRzcGFuIiBmb250LXN0eWxlPSJub3JtYWwiPiBTdGF0dXM8L3RzcGFuPjwvdHNwYW4+PC90ZXh0PjwvZz48L2c+PC9nPjxnIHRyYW5zZm9ybT0idHJhbnNsYXRlKDIyNTIuOTY2NjcyODk3MzM5LCAxMDEwLjIxNjY1OTU0NTg5ODQpIiBjbGFzcz0iZWRnZUxhYmVsIj48ZyB0cmFuc2Zvcm09InRyYW5zbGF0ZSgtNzIuMjc0OTkzODk2NDg0MzgsIC0xMSkiIGNsYXNzPSJsYWJlbCI+PGc+PHJlY3QgaGVpZ2h0PSIyMiIgd2lkdGg9IjE0NC41NDk5ODc3OTI5Njg3NSIgeT0iLTIiIHg9Ii0yIiBzdHlsZT0iIiBjbGFzcz0iYmFja2dyb3VuZCI+PC9yZWN0Pjx0ZXh0IHN0eWxlPSIiIHk9Ii0xMC4xIj48dHNwYW4gZHk9IjEuMWVtIiB5PSItMC4xZW0iIHg9IjAiIGNsYXNzPSJ0ZXh0LW91dGVyLXRzcGFuIj48dHNwYW4gZm9udC13ZWlnaHQ9Im5vcm1hbCIgY2xhc3M9InRleHQtaW5uZXItdHNwYW4iIGZvbnQtc3R5bGU9Im5vcm1hbCI+U3RvcmU8L3RzcGFuPjx0c3BhbiBmb250LXdlaWdodD0ibm9ybWFsIiBjbGFzcz0idGV4dC1pbm5lci10c3BhbiIgZm9udC1zdHlsZT0ibm9ybWFsIj4gUmVwb3J0PC90c3Bhbj48dHNwYW4gZm9udC13ZWlnaHQ9Im5vcm1hbCIgY2xhc3M9InRleHQtaW5uZXItdHNwYW4iIGZvbnQtc3R5bGU9Im5vcm1hbCI+IFN0YXR1czwvdHNwYW4+PC90c3Bhbj48L3RleHQ+PC9nPjwvZz48L2c+PGcgdHJhbnNmb3JtPSJ0cmFuc2xhdGUoMjA1MS4xMjUwMTMzNTE0NDA0LCAxMDcwLjIxNjY1OTU0NTg5ODQpIiBjbGFzcz0iZWRnZUxhYmVsIj48ZyB0cmFuc2Zvcm09InRyYW5zbGF0ZSgtNzIuMjc0OTkzODk2NDg0MzgsIC0xMSkiIGNsYXNzPSJsYWJlbCI+PGc+PHJlY3QgaGVpZ2h0PSIyMiIgd2lkdGg9IjE0NC41NDk5ODc3OTI5Njg3NSIgeT0iLTIiIHg9Ii0yIiBzdHlsZT0iIiBjbGFzcz0iYmFja2dyb3VuZCI+PC9yZWN0Pjx0ZXh0IHN0eWxlPSIiIHk9Ii0xMC4xIj48dHNwYW4gZHk9IjEuMWVtIiB5PSItMC4xZW0iIHg9IjAiIGNsYXNzPSJ0ZXh0LW91dGVyLXRzcGFuIj48dHNwYW4gZm9udC13ZWlnaHQ9Im5vcm1hbCIgY2xhc3M9InRleHQtaW5uZXItdHNwYW4iIGZvbnQtc3R5bGU9Im5vcm1hbCI+U3RvcmU8L3RzcGFuPjx0c3BhbiBmb250LXdlaWdodD0ibm9ybWFsIiBjbGFzcz0idGV4dC1pbm5lci10c3BhbiIgZm9udC1zdHlsZT0ibm9ybWFsIj4gUmVwb3J0PC90c3Bhbj48dHNwYW4gZm9udC13ZWlnaHQ9Im5vcm1hbCIgY2xhc3M9InRleHQtaW5uZXItdHNwYW4iIGZvbnQtc3R5bGU9Im5vcm1hbCI+IFN0YXR1czwvdHNwYW4+PC90c3Bhbj48L3RleHQ+PC9nPjwvZz48L2c+PGcgdHJhbnNmb3JtPSJ0cmFuc2xhdGUoMjcyMC40NzUwMDQxOTYxNjcsIDcxMC4yMTY2NTk1NDU4OTg0KSIgY2xhc3M9ImVkZ2VMYWJlbCI+PGcgdHJhbnNmb3JtPSJ0cmFuc2xhdGUoLTgxLjU5MTY2NzE3NTI5Mjk3LCAtMTEpIiBjbGFzcz0ibGFiZWwiPjxnPjxyZWN0IGhlaWdodD0iMjIiIHdpZHRoPSIxNjMuMTgzMzM0MzUwNTg1OTQiIHk9Ii0yIiB4PSItMiIgc3R5bGU9IiIgY2xhc3M9ImJhY2tncm91bmQiPjwvcmVjdD48dGV4dCBzdHlsZT0iIiB5PSItMTAuMSI+PHRzcGFuIGR5PSIxLjFlbSIgeT0iLTAuMWVtIiB4PSIwIiBjbGFzcz0idGV4dC1vdXRlci10c3BhbiI+PHRzcGFuIGZvbnQtd2VpZ2h0PSJub3JtYWwiIGNsYXNzPSJ0ZXh0LWlubmVyLXRzcGFuIiBmb250LXN0eWxlPSJub3JtYWwiPlN5c3RlbTwvdHNwYW4+PHRzcGFuIGZvbnQtd2VpZ2h0PSJub3JtYWwiIGNsYXNzPSJ0ZXh0LWlubmVyLXRzcGFuIiBmb250LXN0eWxlPSJub3JtYWwiPiBBZG1pbmlzdHJhdGlvbjwvdHNwYW4+PC90c3Bhbj48L3RleHQ+PC9nPjwvZz48L2c+PGcgdHJhbnNmb3JtPSJ0cmFuc2xhdGUoMjYzMy43NzA4MzM5NjkxMTYsIDEwNzAuMjE2NjU5NTQ1ODk4NCkiIGNsYXNzPSJlZGdlTGFiZWwiPjxnIHRyYW5zZm9ybT0idHJhbnNsYXRlKC02Ny44NzUsIC0xMSkiIGNsYXNzPSJsYWJlbCI+PGc+PHJlY3QgaGVpZ2h0PSIyMiIgd2lkdGg9IjEzNS43NSIgeT0iLTIiIHg9Ii0yIiBzdHlsZT0iIiBjbGFzcz0iYmFja2dyb3VuZCI+PC9yZWN0Pjx0ZXh0IHN0eWxlPSIiIHk9Ii0xMC4xIj48dHNwYW4gZHk9IjEuMWVtIiB5PSItMC4xZW0iIHg9IjAiIGNsYXNzPSJ0ZXh0LW91dGVyLXRzcGFuIj48dHNwYW4gZm9udC13ZWlnaHQ9Im5vcm1hbCIgY2xhc3M9InRleHQtaW5uZXItdHNwYW4iIGZvbnQtc3R5bGU9Im5vcm1hbCI+VXNlcjwvdHNwYW4+PHRzcGFuIGZvbnQtd2VpZ2h0PSJub3JtYWwiIGNsYXNzPSJ0ZXh0LWlubmVyLXRzcGFuIiBmb250LXN0eWxlPSJub3JtYWwiPiBNYW5hZ2VtZW50PC90c3Bhbj48L3RzcGFuPjwvdGV4dD48L2c+PC9nPjwvZz48ZyB0cmFuc2Zvcm09InRyYW5zbGF0ZSgyODAwLjEzNzUwMjY3MDI4OCwgMTA3MC4yMTY2NTk1NDU4OTg0KSIgY2xhc3M9ImVkZ2VMYWJlbCI+PGcgdHJhbnNmb3JtPSJ0cmFuc2xhdGUoLTc4LjQ5MTY2ODcwMTE3MTg4LCAtMTEpIiBjbGFzcz0ibGFiZWwiPjxnPjxyZWN0IGhlaWdodD0iMjIiIHdpZHRoPSIxNTYuOTgzMzM3NDAyMzQzNzUiIHk9Ii0yIiB4PSItMiIgc3R5bGU9IiIgY2xhc3M9ImJhY2tncm91bmQiPjwvcmVjdD48dGV4dCBzdHlsZT0iIiB5PSItMTAuMSI+PHRzcGFuIGR5PSIxLjFlbSIgeT0iLTAuMWVtIiB4PSIwIiBjbGFzcz0idGV4dC1vdXRlci10c3BhbiI+PHRzcGFuIGZvbnQtd2VpZ2h0PSJub3JtYWwiIGNsYXNzPSJ0ZXh0LWlubmVyLXRzcGFuIiBmb250LXN0eWxlPSJub3JtYWwiPlN5c3RlbTwvdHNwYW4+PHRzcGFuIGZvbnQtd2VpZ2h0PSJub3JtYWwiIGNsYXNzPSJ0ZXh0LWlubmVyLXRzcGFuIiBmb250LXN0eWxlPSJub3JtYWwiPiBDb25maWd1cmF0aW9uPC90c3Bhbj48L3RzcGFuPjwvdGV4dD48L2c+PC9nPjwvZz48ZyB0cmFuc2Zvcm09InRyYW5zbGF0ZSgyOTM4LjQzNzUwNTcyMjA0NiwgMTA3MC4yMTY2NTk1NDU4OTg0KSIgY2xhc3M9ImVkZ2VMYWJlbCI+PGcgdHJhbnNmb3JtPSJ0cmFuc2xhdGUoLTM5LjgwODMzNDM1MDU4NTk0LCAtMTEpIiBjbGFzcz0ibGFiZWwiPjxnPjxyZWN0IGhlaWdodD0iMjIiIHdpZHRoPSI3OS42MTY2Njg3MDExNzE4OCIgeT0iLTIiIHg9Ii0yIiBzdHlsZT0iIiBjbGFzcz0iYmFja2dyb3VuZCI+PC9yZWN0Pjx0ZXh0IHN0eWxlPSIiIHk9Ii0xMC4xIj48dHNwYW4gZHk9IjEuMWVtIiB5PSItMC4xZW0iIHg9IjAiIGNsYXNzPSJ0ZXh0LW91dGVyLXRzcGFuIj48dHNwYW4gZm9udC13ZWlnaHQ9Im5vcm1hbCIgY2xhc3M9InRleHQtaW5uZXItdHNwYW4iIGZvbnQtc3R5bGU9Im5vcm1hbCI+QXVkaXQ8L3RzcGFuPjx0c3BhbiBmb250LXdlaWdodD0ibm9ybWFsIiBjbGFzcz0idGV4dC1pbm5lci10c3BhbiIgZm9udC1zdHlsZT0ibm9ybWFsIj4gTG9nczwvdHNwYW4+PC90c3Bhbj48L3RleHQ+PC9nPjwvZz48L2c+PGcgdHJhbnNmb3JtPSJ0cmFuc2xhdGUoMjg1MS43MzMzMzU0OTQ5OTUsIDQ3MC4yMTY2NTk1NDU4OTg0NCkiIGNsYXNzPSJlZGdlTGFiZWwiPjxnIHRyYW5zZm9ybT0idHJhbnNsYXRlKC0zMS4zNTAwMDAzODE0Njk3MjcsIC0xMSkiIGNsYXNzPSJsYWJlbCI+PGc+PHJlY3QgaGVpZ2h0PSIyMiIgd2lkdGg9IjYyLjcwMDAwMDc2MjkzOTQ1IiB5PSItMiIgeD0iLTIiIHN0eWxlPSIiIGNsYXNzPSJiYWNrZ3JvdW5kIj48L3JlY3Q+PHRleHQgc3R5bGU9IiIgeT0iLTEwLjEiPjx0c3BhbiBkeT0iMS4xZW0iIHk9Ii0wLjFlbSIgeD0iMCIgY2xhc3M9InRleHQtb3V0ZXItdHNwYW4iPjx0c3BhbiBmb250LXdlaWdodD0ibm9ybWFsIiBjbGFzcz0idGV4dC1pbm5lci10c3BhbiIgZm9udC1zdHlsZT0ibm9ybWFsIj5DYWNoaW5nPC90c3Bhbj48L3RzcGFuPjwvdGV4dD48L2c+PC9nPjwvZz48L2c+PGcgY2xhc3M9Im5vZGVzIj48ZyB0cmFuc2Zvcm09InRyYW5zbGF0ZSgxNjUzLjc1MDAyMDk4MDgzNSwgMzIpIiBpZD0iZmxvd2NoYXJ0LUEtMzMzIiBjbGFzcz0ibm9kZSBkZWZhdWx0Ij48cmVjdCBoZWlnaHQ9IjQ4IiB3aWR0aD0iMTY0LjE2NjY3MTc1MjkyOTciIHk9Ii0yNCIgeD0iLTgyLjA4MzMzNTg3NjQ2NDg0IiBkYXRhLWV0PSJub2RlIiBkYXRhLWlkPSJhYmMiIHN0eWxlPSIiIGNsYXNzPSJiYXNpYyBsYWJlbC1jb250YWluZXIiPjwvcmVjdD48ZyB0cmFuc2Zvcm09InRyYW5zbGF0ZSgwLCAtOSkiIHN0eWxlPSIiIGNsYXNzPSJsYWJlbCI+PHJlY3Q+PC9yZWN0PjxnPjxyZWN0IHN0eWxlPSJzdHJva2U6IG5vbmUiIGNsYXNzPSJiYWNrZ3JvdW5kIj48L3JlY3Q+PHRleHQgc3R5bGU9IiIgeT0iLTEwLjEiPjx0c3BhbiBkeT0iMS4xZW0iIHk9Ii0wLjFlbSIgeD0iMCIgY2xhc3M9InRleHQtb3V0ZXItdHNwYW4iPjx0c3BhbiBmb250LXdlaWdodD0ibm9ybWFsIiBjbGFzcz0idGV4dC1pbm5lci10c3BhbiIgZm9udC1zdHlsZT0ibm9ybWFsIj5DbGllbnQ8L3RzcGFuPjx0c3BhbiBmb250LXdlaWdodD0ibm9ybWFsIiBjbGFzcz0idGV4dC1pbm5lci10c3BhbiIgZm9udC1zdHlsZT0ibm9ybWFsIj4gQnJvd3NlcjwvdHNwYW4+PC90c3Bhbj48L3RleHQ+PC9nPjwvZz48L2c+PGcgdHJhbnNmb3JtPSJ0cmFuc2xhdGUoMTY1My43NTAwMjA5ODA4MzUsIDE1MikiIGlkPSJmbG93Y2hhcnQtQi0zMzQiIGNsYXNzPSJub2RlIGRlZmF1bHQiPjxyZWN0IGhlaWdodD0iNDgiIHdpZHRoPSIxODIuNjk5OTk2OTQ4MjQyMiIgeT0iLTI0IiB4PSItOTEuMzQ5OTk4NDc0MTIxMSIgcnk9IjUiIGRhdGEtZXQ9Im5vZGUiIGRhdGEtaWQ9ImFiYyIgcng9IjUiIHN0eWxlPSIiIGNsYXNzPSJiYXNpYyBsYWJlbC1jb250YWluZXIiPjwvcmVjdD48ZyB0cmFuc2Zvcm09InRyYW5zbGF0ZSgwLCAtOSkiIHN0eWxlPSIiIGNsYXNzPSJsYWJlbCI+PHJlY3Q+PC9yZWN0PjxnPjxyZWN0IHN0eWxlPSJzdHJva2U6IG5vbmUiIGNsYXNzPSJiYWNrZ3JvdW5kIj48L3JlY3Q+PHRleHQgc3R5bGU9IiIgeT0iLTEwLjEiPjx0c3BhbiBkeT0iMS4xZW0iIHk9Ii0wLjFlbSIgeD0iMCIgY2xhc3M9InRleHQtb3V0ZXItdHNwYW4iPjx0c3BhbiBmb250LXdlaWdodD0ibm9ybWFsIiBjbGFzcz0idGV4dC1pbm5lci10c3BhbiIgZm9udC1zdHlsZT0ibm9ybWFsIj5XZWI8L3RzcGFuPjx0c3BhbiBmb250LXdlaWdodD0ibm9ybWFsIiBjbGFzcz0idGV4dC1pbm5lci10c3BhbiIgZm9udC1zdHlsZT0ibm9ybWFsIj4gU2VydmVyPC90c3Bhbj48dHNwYW4gZm9udC13ZWlnaHQ9Im5vcm1hbCIgY2xhc3M9InRleHQtaW5uZXItdHNwYW4iIGZvbnQtc3R5bGU9Im5vcm1hbCI+IC08L3RzcGFuPjx0c3BhbiBmb250LXdlaWdodD0ibm9ybWFsIiBjbGFzcz0idGV4dC1pbm5lci10c3BhbiIgZm9udC1zdHlsZT0ibm9ybWFsIj4gQXBhY2hlPC90c3Bhbj48L3RzcGFuPjwvdGV4dD48L2c+PC9nPjwvZz48ZyB0cmFuc2Zvcm09InRyYW5zbGF0ZSgxNjUzLjc1MDAyMDk4MDgzNSwgMzMwLjEwODMyOTc3Mjk0OTIpIiBpZD0iZmxvd2NoYXJ0LUMtMzM2IiBjbGFzcz0ibm9kZSBkZWZhdWx0Ij48cG9seWdvbiB0cmFuc2Zvcm09InRyYW5zbGF0ZSgtMTA0LjEwODMyOTc3Mjk0OTIyLDEwNC4xMDgzMjk3NzI5NDkyMikiIGNsYXNzPSJsYWJlbC1jb250YWluZXIiIHBvaW50cz0iMTA0LjEwODMyOTc3Mjk0OTIyLDAgMjA4LjIxNjY1OTU0NTg5ODQ0LC0xMDQuMTA4MzI5NzcyOTQ5MjIgMTA0LjEwODMyOTc3Mjk0OTIyLC0yMDguMjE2NjU5NTQ1ODk4NDQgMCwtMTA0LjEwODMyOTc3Mjk0OTIyIj48L3BvbHlnb24+PGcgdHJhbnNmb3JtPSJ0cmFuc2xhdGUoMCwgLTkpIiBzdHlsZT0iIiBjbGFzcz0ibGFiZWwiPjxyZWN0PjwvcmVjdD48Zz48cmVjdCBzdHlsZT0ic3Ryb2tlOiBub25lIiBjbGFzcz0iYmFja2dyb3VuZCI+PC9yZWN0Pjx0ZXh0IHN0eWxlPSIiIHk9Ii0xMC4xIj48dHNwYW4gZHk9IjEuMWVtIiB5PSItMC4xZW0iIHg9IjAiIGNsYXNzPSJ0ZXh0LW91dGVyLXRzcGFuIj48dHNwYW4gZm9udC13ZWlnaHQ9Im5vcm1hbCIgY2xhc3M9InRleHQtaW5uZXItdHNwYW4iIGZvbnQtc3R5bGU9Im5vcm1hbCI+UEhQPC90c3Bhbj48dHNwYW4gZm9udC13ZWlnaHQ9Im5vcm1hbCIgY2xhc3M9InRleHQtaW5uZXItdHNwYW4iIGZvbnQtc3R5bGU9Im5vcm1hbCI+IEFwcGxpY2F0aW9uPC90c3Bhbj48dHNwYW4gZm9udC13ZWlnaHQ9Im5vcm1hbCIgY2xhc3M9InRleHQtaW5uZXItdHNwYW4iIGZvbnQtc3R5bGU9Im5vcm1hbCI+IExheWVyPC90c3Bhbj48L3RzcGFuPjwvdGV4dD48L2c+PC9nPjwvZz48ZyB0cmFuc2Zvcm09InRyYW5zbGF0ZSgzNjIuNzYyNDk2OTQ4MjQyMiwgODkwLjIxNjY1OTU0NTg5ODQpIiBpZD0iZmxvd2NoYXJ0LUQtMzM4IiBjbGFzcz0ibm9kZSBkZWZhdWx0Ij48cmVjdCBoZWlnaHQ9IjQ4IiB3aWR0aD0iMTkzLjQ0OTk5Njk0ODI0MjIiIHk9Ii0yNCIgeD0iLTk2LjcyNDk5ODQ3NDEyMTEiIGRhdGEtZXQ9Im5vZGUiIGRhdGEtaWQ9ImFiYyIgc3R5bGU9IiIgY2xhc3M9ImJhc2ljIGxhYmVsLWNvbnRhaW5lciI+PC9yZWN0PjxnIHRyYW5zZm9ybT0idHJhbnNsYXRlKDAsIC05KSIgc3R5bGU9IiIgY2xhc3M9ImxhYmVsIj48cmVjdD48L3JlY3Q+PGc+PHJlY3Qgc3R5bGU9InN0cm9rZTogbm9uZSIgY2xhc3M9ImJhY2tncm91bmQiPjwvcmVjdD48dGV4dCBzdHlsZT0iIiB5PSItMTAuMSI+PHRzcGFuIGR5PSIxLjFlbSIgeT0iLTAuMWVtIiB4PSIwIiBjbGFzcz0idGV4dC1vdXRlci10c3BhbiI+PHRzcGFuIGZvbnQtd2VpZ2h0PSJub3JtYWwiIGNsYXNzPSJ0ZXh0LWlubmVyLXRzcGFuIiBmb250LXN0eWxlPSJub3JtYWwiPkxvZ2luL0F1dGg8L3RzcGFuPjx0c3BhbiBmb250LXdlaWdodD0ibm9ybWFsIiBjbGFzcz0idGV4dC1pbm5lci10c3BhbiIgZm9udC1zdHlsZT0ibm9ybWFsIj4gTW9kdWxlPC90c3Bhbj48L3RzcGFuPjwvdGV4dD48L2c+PC9nPjwvZz48ZyB0cmFuc2Zvcm09InRyYW5zbGF0ZSg5OC40NjY2NjcxNzUyOTI5NywgMTAxMC4yMTY2NTk1NDU4OTg0KSIgaWQ9ImZsb3djaGFydC1FLTM0MCIgY2xhc3M9Im5vZGUgZGVmYXVsdCI+PHJlY3QgaGVpZ2h0PSI0OCIgd2lkdGg9IjE4MC45MzMzMzQzNTA1ODU5NCIgeT0iLTI0IiB4PSItOTAuNDY2NjY3MTc1MjkyOTciIGRhdGEtZXQ9Im5vZGUiIGRhdGEtaWQ9ImFiYyIgc3R5bGU9IiIgY2xhc3M9ImJhc2ljIGxhYmVsLWNvbnRhaW5lciI+PC9yZWN0PjxnIHRyYW5zZm9ybT0idHJhbnNsYXRlKDAsIC05KSIgc3R5bGU9IiIgY2xhc3M9ImxhYmVsIj48cmVjdD48L3JlY3Q+PGc+PHJlY3Qgc3R5bGU9InN0cm9rZTogbm9uZSIgY2xhc3M9ImJhY2tncm91bmQiPjwvcmVjdD48dGV4dCBzdHlsZT0iIiB5PSItMTAuMSI+PHRzcGFuIGR5PSIxLjFlbSIgeT0iLTAuMWVtIiB4PSIwIiBjbGFzcz0idGV4dC1vdXRlci10c3BhbiI+PHRzcGFuIGZvbnQtd2VpZ2h0PSJub3JtYWwiIGNsYXNzPSJ0ZXh0LWlubmVyLXRzcGFuIiBmb250LXN0eWxlPSJub3JtYWwiPk9UUDwvdHNwYW4+PHRzcGFuIGZvbnQtd2VpZ2h0PSJub3JtYWwiIGNsYXNzPSJ0ZXh0LWlubmVyLXRzcGFuIiBmb250LXN0eWxlPSJub3JtYWwiPiBTZXJ2aWNlPC90c3Bhbj48dHNwYW4gZm9udC13ZWlnaHQ9Im5vcm1hbCIgY2xhc3M9InRleHQtaW5uZXItdHNwYW4iIGZvbnQtc3R5bGU9Im5vcm1hbCI+IEFQSTwvdHNwYW4+PC90c3Bhbj48L3RleHQ+PC9nPjwvZz48L2c+PGcgdHJhbnNmb3JtPSJ0cmFuc2xhdGUoMzI3LjY5OTk5Njk0ODI0MjIsIDEwMTAuMjE2NjU5NTQ1ODk4NCkiIGlkPSJmbG93Y2hhcnQtRi0zNDIiIGNsYXNzPSJub2RlIGRlZmF1bHQiPjxyZWN0IGhlaWdodD0iNDgiIHdpZHRoPSIxNzcuNTMzMzI1MTk1MzEyNSIgeT0iLTI0IiB4PSItODguNzY2NjYyNTk3NjU2MjUiIGRhdGEtZXQ9Im5vZGUiIGRhdGEtaWQ9ImFiYyIgc3R5bGU9IiIgY2xhc3M9ImJhc2ljIGxhYmVsLWNvbnRhaW5lciI+PC9yZWN0PjxnIHRyYW5zZm9ybT0idHJhbnNsYXRlKDAsIC05KSIgc3R5bGU9IiIgY2xhc3M9ImxhYmVsIj48cmVjdD48L3JlY3Q+PGc+PHJlY3Qgc3R5bGU9InN0cm9rZTogbm9uZSIgY2xhc3M9ImJhY2tncm91bmQiPjwvcmVjdD48dGV4dCBzdHlsZT0iIiB5PSItMTAuMSI+PHRzcGFuIGR5PSIxLjFlbSIgeT0iLTAuMWVtIiB4PSIwIiBjbGFzcz0idGV4dC1vdXRlci10c3BhbiI+PHRzcGFuIGZvbnQtd2VpZ2h0PSJub3JtYWwiIGNsYXNzPSJ0ZXh0LWlubmVyLXRzcGFuIiBmb250LXN0eWxlPSJub3JtYWwiPlNlc3Npb248L3RzcGFuPjx0c3BhbiBmb250LXdlaWdodD0ibm9ybWFsIiBjbGFzcz0idGV4dC1pbm5lci10c3BhbiIgZm9udC1zdHlsZT0ibm9ybWFsIj4gSGFuZGxlcjwvdHNwYW4+PC90c3Bhbj48L3RleHQ+PC9nPjwvZz48L2c+PGcgdHJhbnNmb3JtPSJ0cmFuc2xhdGUoODMzLjM3OTE3MTM3MTQ2LCAxMDEwLjIxNjY1OTU0NTg5ODQpIiBpZD0iZmxvd2NoYXJ0LUctMzQ0IiBjbGFzcz0ibm9kZSBkZWZhdWx0Ij48cmVjdCBoZWlnaHQ9IjQ4IiB3aWR0aD0iMTkzLjQzMzMzNDM1MDU4NTk0IiB5PSItMjQiIHg9Ii05Ni43MTY2NjcxNzUyOTI5NyIgZGF0YS1ldD0ibm9kZSIgZGF0YS1pZD0iYWJjIiBzdHlsZT0iIiBjbGFzcz0iYmFzaWMgbGFiZWwtY29udGFpbmVyIj48L3JlY3Q+PGcgdHJhbnNmb3JtPSJ0cmFuc2xhdGUoMCwgLTkpIiBzdHlsZT0iIiBjbGFzcz0ibGFiZWwiPjxyZWN0PjwvcmVjdD48Zz48cmVjdCBzdHlsZT0ic3Ryb2tlOiBub25lIiBjbGFzcz0iYmFja2dyb3VuZCI+PC9yZWN0Pjx0ZXh0IHN0eWxlPSIiIHk9Ii0xMC4xIj48dHNwYW4gZHk9IjEuMWVtIiB5PSItMC4xZW0iIHg9IjAiIGNsYXNzPSJ0ZXh0LW91dGVyLXRzcGFuIj48dHNwYW4gZm9udC13ZWlnaHQ9Im5vcm1hbCIgY2xhc3M9InRleHQtaW5uZXItdHNwYW4iIGZvbnQtc3R5bGU9Im5vcm1hbCI+RXF1aXBtZW50PC90c3Bhbj48dHNwYW4gZm9udC13ZWlnaHQ9Im5vcm1hbCIgY2xhc3M9InRleHQtaW5uZXItdHNwYW4iIGZvbnQtc3R5bGU9Im5vcm1hbCI+IE1vZHVsZTwvdHNwYW4+PC90c3Bhbj48L3RleHQ+PC9nPjwvZz48L2c+PGcgdHJhbnNmb3JtPSJ0cmFuc2xhdGUoMTI1MC42MDgzNDUwMzE3MzgzLCAxMDEwLjIxNjY1OTU0NTg5ODQpIiBpZD0iZmxvd2NoYXJ0LUgtMzQ2IiBjbGFzcz0ibm9kZSBkZWZhdWx0Ij48cmVjdCBoZWlnaHQ9IjQ4IiB3aWR0aD0iMTg4Ljk4MzMzNzQwMjM0Mzc1IiB5PSItMjQiIHg9Ii05NC40OTE2Njg3MDExNzE4OCIgZGF0YS1ldD0ibm9kZSIgZGF0YS1pZD0iYWJjIiBzdHlsZT0iIiBjbGFzcz0iYmFzaWMgbGFiZWwtY29udGFpbmVyIj48L3JlY3Q+PGcgdHJhbnNmb3JtPSJ0cmFuc2xhdGUoMCwgLTkpIiBzdHlsZT0iIiBjbGFzcz0ibGFiZWwiPjxyZWN0PjwvcmVjdD48Zz48cmVjdCBzdHlsZT0ic3Ryb2tlOiBub25lIiBjbGFzcz0iYmFja2dyb3VuZCI+PC9yZWN0Pjx0ZXh0IHN0eWxlPSIiIHk9Ii0xMC4xIj48dHNwYW4gZHk9IjEuMWVtIiB5PSItMC4xZW0iIHg9IjAiIGNsYXNzPSJ0ZXh0LW91dGVyLXRzcGFuIj48dHNwYW4gZm9udC13ZWlnaHQ9Im5vcm1hbCIgY2xhc3M9InRleHQtaW5uZXItdHNwYW4iIGZvbnQtc3R5bGU9Im5vcm1hbCI+UGVyc29ubmVsPC90c3Bhbj48dHNwYW4gZm9udC13ZWlnaHQ9Im5vcm1hbCIgY2xhc3M9InRleHQtaW5uZXItdHNwYW4iIGZvbnQtc3R5bGU9Im5vcm1hbCI+IE1vZHVsZTwvdHNwYW4+PC90c3Bhbj48L3RleHQ+PC9nPjwvZz48L2c+PGcgdHJhbnNmb3JtPSJ0cmFuc2xhdGUoMTUxNi4xOTE2ODI4MTU1NTE4LCAxMDEwLjIxNjY1OTU0NTg5ODQpIiBpZD0iZmxvd2NoYXJ0LUktMzQ4IiBjbGFzcz0ibm9kZSBkZWZhdWx0Ij48cmVjdCBoZWlnaHQ9IjQ4IiB3aWR0aD0iMTQ1LjM4MzMzMTI5ODgyODEyIiB5PSItMjQiIHg9Ii03Mi42OTE2NjU2NDk0MTQwNiIgZGF0YS1ldD0ibm9kZSIgZGF0YS1pZD0iYWJjIiBzdHlsZT0iIiBjbGFzcz0iYmFzaWMgbGFiZWwtY29udGFpbmVyIj48L3JlY3Q+PGcgdHJhbnNmb3JtPSJ0cmFuc2xhdGUoMCwgLTkpIiBzdHlsZT0iIiBjbGFzcz0ibGFiZWwiPjxyZWN0PjwvcmVjdD48Zz48cmVjdCBzdHlsZT0ic3Ryb2tlOiBub25lIiBjbGFzcz0iYmFja2dyb3VuZCI+PC9yZWN0Pjx0ZXh0IHN0eWxlPSIiIHk9Ii0xMC4xIj48dHNwYW4gZHk9IjEuMWVtIiB5PSItMC4xZW0iIHg9IjAiIGNsYXNzPSJ0ZXh0LW91dGVyLXRzcGFuIj48dHNwYW4gZm9udC13ZWlnaHQ9Im5vcm1hbCIgY2xhc3M9InRleHQtaW5uZXItdHNwYW4iIGZvbnQtc3R5bGU9Im5vcm1hbCI+VW5pdDwvdHNwYW4+PHRzcGFuIGZvbnQtd2VpZ2h0PSJub3JtYWwiIGNsYXNzPSJ0ZXh0LWlubmVyLXRzcGFuIiBmb250LXN0eWxlPSJub3JtYWwiPiBNb2R1bGU8L3RzcGFuPjwvdHNwYW4+PC90ZXh0PjwvZz48L2c+PC9nPjxnIHRyYW5zZm9ybT0idHJhbnNsYXRlKDIwNTYuODc5MTg2NjMwMjQ5LCA1MzAuMjE2NjU5NTQ1ODk4NCkiIGlkPSJmbG93Y2hhcnQtSi0zNTAiIGNsYXNzPSJub2RlIGRlZmF1bHQiPjxyZWN0IGhlaWdodD0iNDgiIHdpZHRoPSIxODYuMzE2NjY1NjQ5NDE0MDYiIHk9Ii0yNCIgeD0iLTkzLjE1ODMzMjgyNDcwNzAzIiBkYXRhLWV0PSJub2RlIiBkYXRhLWlkPSJhYmMiIHN0eWxlPSIiIGNsYXNzPSJiYXNpYyBsYWJlbC1jb250YWluZXIiPjwvcmVjdD48ZyB0cmFuc2Zvcm09InRyYW5zbGF0ZSgwLCAtOSkiIHN0eWxlPSIiIGNsYXNzPSJsYWJlbCI+PHJlY3Q+PC9yZWN0PjxnPjxyZWN0IHN0eWxlPSJzdHJva2U6IG5vbmUiIGNsYXNzPSJiYWNrZ3JvdW5kIj48L3JlY3Q+PHRleHQgc3R5bGU9IiIgeT0iLTEwLjEiPjx0c3BhbiBkeT0iMS4xZW0iIHk9Ii0wLjFlbSIgeD0iMCIgY2xhc3M9InRleHQtb3V0ZXItdHNwYW4iPjx0c3BhbiBmb250LXdlaWdodD0ibm9ybWFsIiBjbGFzcz0idGV4dC1pbm5lci10c3BhbiIgZm9udC1zdHlsZT0ibm9ybWFsIj5SZXBvcnRpbmc8L3RzcGFuPjx0c3BhbiBmb250LXdlaWdodD0ibm9ybWFsIiBjbGFzcz0idGV4dC1pbm5lci10c3BhbiIgZm9udC1zdHlsZT0ibm9ybWFsIj4gTW9kdWxlPC90c3Bhbj48L3RzcGFuPjwvdGV4dD48L2c+PC9nPjwvZz48ZyB0cmFuc2Zvcm09InRyYW5zbGF0ZSg1MjQuNTg3NDk3NzExMTgxNiwgMTE0Mi42MTQzMzAyOTE3NDgpIiBpZD0iZmxvd2NoYXJ0LUstMzUyIiBjbGFzcz0ibm9kZSBkZWZhdWx0Ij48cmVjdCBoZWlnaHQ9IjQ4IiB3aWR0aD0iMTk3Ljg2NjY2ODcwMTE3MTg4IiB5PSItMjQiIHg9Ii05OC45MzMzMzQzNTA1ODU5NCIgZGF0YS1ldD0ibm9kZSIgZGF0YS1pZD0iYWJjIiBzdHlsZT0iIiBjbGFzcz0iYmFzaWMgbGFiZWwtY29udGFpbmVyIj48L3JlY3Q+PGcgdHJhbnNmb3JtPSJ0cmFuc2xhdGUoMCwgLTkpIiBzdHlsZT0iIiBjbGFzcz0ibGFiZWwiPjxyZWN0PjwvcmVjdD48Zz48cmVjdCBzdHlsZT0ic3Ryb2tlOiBub25lIiBjbGFzcz0iYmFja2dyb3VuZCI+PC9yZWN0Pjx0ZXh0IHN0eWxlPSIiIHk9Ii0xMC4xIj48dHNwYW4gZHk9IjEuMWVtIiB5PSItMC4xZW0iIHg9IjAiIGNsYXNzPSJ0ZXh0LW91dGVyLXRzcGFuIj48dHNwYW4gZm9udC13ZWlnaHQ9Im5vcm1hbCIgY2xhc3M9InRleHQtaW5uZXItdHNwYW4iIGZvbnQtc3R5bGU9Im5vcm1hbCI+TGljZW5zZTwvdHNwYW4+PHRzcGFuIGZvbnQtd2VpZ2h0PSJub3JtYWwiIGNsYXNzPSJ0ZXh0LWlubmVyLXRzcGFuIiBmb250LXN0eWxlPSJub3JtYWwiPiBWZXJpZmljYXRpb248L3RzcGFuPjwvdHNwYW4+PC90ZXh0PjwvZz48L2c+PC9nPjxnIHRyYW5zZm9ybT0idHJhbnNsYXRlKDc2NC4wMDQxNjk0NjQxMTEzLCAxMTQyLjYxNDMzMDI5MTc0OCkiIGlkPSJmbG93Y2hhcnQtTC0zNTQiIGNsYXNzPSJub2RlIGRlZmF1bHQiPjxyZWN0IGhlaWdodD0iNDgiIHdpZHRoPSIxODAuOTY2NjY3MTc1MjkyOTciIHk9Ii0yNCIgeD0iLTkwLjQ4MzMzMzU4NzY0NjQ4IiBkYXRhLWV0PSJub2RlIiBkYXRhLWlkPSJhYmMiIHN0eWxlPSIiIGNsYXNzPSJiYXNpYyBsYWJlbC1jb250YWluZXIiPjwvcmVjdD48ZyB0cmFuc2Zvcm09InRyYW5zbGF0ZSgwLCAtOSkiIHN0eWxlPSIiIGNsYXNzPSJsYWJlbCI+PHJlY3Q+PC9yZWN0PjxnPjxyZWN0IHN0eWxlPSJzdHJva2U6IG5vbmUiIGNsYXNzPSJiYWNrZ3JvdW5kIj48L3JlY3Q+PHRleHQgc3R5bGU9IiIgeT0iLTEwLjEiPjx0c3BhbiBkeT0iMS4xZW0iIHk9Ii0wLjFlbSIgeD0iMCIgY2xhc3M9InRleHQtb3V0ZXItdHNwYW4iPjx0c3BhbiBmb250LXdlaWdodD0ibm9ybWFsIiBjbGFzcz0idGV4dC1pbm5lci10c3BhbiIgZm9udC1zdHlsZT0ibm9ybWFsIj5TdG9yZTwvdHNwYW4+PHRzcGFuIGZvbnQtd2VpZ2h0PSJub3JtYWwiIGNsYXNzPSJ0ZXh0LWlubmVyLXRzcGFuIiBmb250LXN0eWxlPSJub3JtYWwiPiBWZXJpZmljYXRpb248L3RzcGFuPjwvdHNwYW4+PC90ZXh0PjwvZz48L2c+PC9nPjxnIHRyYW5zZm9ybT0idHJhbnNsYXRlKDEwNDEuNTA0MTc3MDkzNTA1OSwgMTE0Mi42MTQzMzAyOTE3NDgpIiBpZD0iZmxvd2NoYXJ0LU0tMzU2IiBjbGFzcz0ibm9kZSBkZWZhdWx0Ij48cmVjdCBoZWlnaHQ9IjQ4IiB3aWR0aD0iMjQzLjIxNjY3NDgwNDY4NzUiIHk9Ii0yNCIgeD0iLTEyMS42MDgzMzc0MDIzNDM3NSIgZGF0YS1ldD0ibm9kZSIgZGF0YS1pZD0iYWJjIiBzdHlsZT0iIiBjbGFzcz0iYmFzaWMgbGFiZWwtY29udGFpbmVyIj48L3JlY3Q+PGcgdHJhbnNmb3JtPSJ0cmFuc2xhdGUoMCwgLTkpIiBzdHlsZT0iIiBjbGFzcz0ibGFiZWwiPjxyZWN0PjwvcmVjdD48Zz48cmVjdCBzdHlsZT0ic3Ryb2tlOiBub25lIiBjbGFzcz0iYmFja2dyb3VuZCI+PC9yZWN0Pjx0ZXh0IHN0eWxlPSIiIHk9Ii0xMC4xIj48dHNwYW4gZHk9IjEuMWVtIiB5PSItMC4xZW0iIHg9IjAiIGNsYXNzPSJ0ZXh0LW91dGVyLXRzcGFuIj48dHNwYW4gZm9udC13ZWlnaHQ9Im5vcm1hbCIgY2xhc3M9InRleHQtaW5uZXItdHNwYW4iIGZvbnQtc3R5bGU9Im5vcm1hbCI+RXN0YWJsaXNobWVudDwvdHNwYW4+PHRzcGFuIGZvbnQtd2VpZ2h0PSJub3JtYWwiIGNsYXNzPSJ0ZXh0LWlubmVyLXRzcGFuIiBmb250LXN0eWxlPSJub3JtYWwiPiBWZXJpZmljYXRpb248L3RzcGFuPjwvdHNwYW4+PC90ZXh0PjwvZz48L2c+PC9nPjxnIHRyYW5zZm9ybT0idHJhbnNsYXRlKDE5ODUuNDk1ODQ3NzAyMDI2NCwgMTE0Mi42MTQzMzAyOTE3NDgpIiBpZD0iZmxvd2NoYXJ0LU4tMzYzIiBjbGFzcz0ibm9kZSBkZWZhdWx0Ij48cGF0aCB0cmFuc2Zvcm09InRyYW5zbGF0ZSgtNzAuNjQ5OTk3NzExMTgxNjQsIC0zNi4zOTc2NzE0OTYxNDMyMDQpIiBzdHlsZT0iIiBjbGFzcz0iYmFzaWMgbGFiZWwtY29udGFpbmVyIiBkPSJNMCwxMy4yNjUxMTQzMzA3NjIxMzUgYTcwLjY0OTk5NzcxMTE4MTY0LDEzLjI2NTExNDMzMDc2MjEzNSAwLDAsMCAxNDEuMjk5OTk1NDIyMzYzMjgsMCBhNzAuNjQ5OTk3NzExMTgxNjQsMTMuMjY1MTE0MzMwNzYyMTM1IDAsMCwwIC0xNDEuMjk5OTk1NDIyMzYzMjgsMCBsMCw0Ni4yNjUxMTQzMzA3NjIxMyBhNzAuNjQ5OTk3NzExMTgxNjQsMTMuMjY1MTE0MzMwNzYyMTM1IDAsMCwwIDE0MS4yOTk5OTU0MjIzNjMyOCwwIGwwLC00Ni4yNjUxMTQzMzA3NjIxMyI+PC9wYXRoPjxnIHRyYW5zZm9ybT0idHJhbnNsYXRlKDAsIC05KSIgc3R5bGU9IiIgY2xhc3M9ImxhYmVsIj48cmVjdD48L3JlY3Q+PGc+PHJlY3Qgc3R5bGU9InN0cm9rZTogbm9uZSIgY2xhc3M9ImJhY2tncm91bmQiPjwvcmVjdD48dGV4dCBzdHlsZT0iIiB5PSItMTAuMSI+PHRzcGFuIGR5PSIxLjFlbSIgeT0iLTAuMWVtIiB4PSIwIiBjbGFzcz0idGV4dC1vdXRlci10c3BhbiI+PHRzcGFuIGZvbnQtd2VpZ2h0PSJub3JtYWwiIGNsYXNzPSJ0ZXh0LWlubmVyLXRzcGFuIiBmb250LXN0eWxlPSJub3JtYWwiPk15U1FMPC90c3Bhbj48dHNwYW4gZm9udC13ZWlnaHQ9Im5vcm1hbCIgY2xhc3M9InRleHQtaW5uZXItdHNwYW4iIGZvbnQtc3R5bGU9Im5vcm1hbCI+IERhdGFiYXNlPC90c3Bhbj48L3RzcGFuPjwvdGV4dD48L2c+PC9nPjwvZz48ZyB0cmFuc2Zvcm09InRyYW5zbGF0ZSgxNzg1LjgzMzM0OTIyNzkwNTMsIDY1MC4yMTY2NTk1NDU4OTg0KSIgaWQ9ImZsb3djaGFydC1PLTM2NSIgY2xhc3M9Im5vZGUgZGVmYXVsdCI+PHJlY3QgaGVpZ2h0PSI0OCIgd2lkdGg9IjIzMy40MzMzMzQzNTA1ODU5NCIgeT0iLTI0IiB4PSItMTE2LjcxNjY2NzE3NTI5Mjk3IiBkYXRhLWV0PSJub2RlIiBkYXRhLWlkPSJhYmMiIHN0eWxlPSIiIGNsYXNzPSJiYXNpYyBsYWJlbC1jb250YWluZXIiPjwvcmVjdD48ZyB0cmFuc2Zvcm09InRyYW5zbGF0ZSgwLCAtOSkiIHN0eWxlPSIiIGNsYXNzPSJsYWJlbCI+PHJlY3Q+PC9yZWN0PjxnPjxyZWN0IHN0eWxlPSJzdHJva2U6IG5vbmUiIGNsYXNzPSJiYWNrZ3JvdW5kIj48L3JlY3Q+PHRleHQgc3R5bGU9IiIgeT0iLTEwLjEiPjx0c3BhbiBkeT0iMS4xZW0iIHk9Ii0wLjFlbSIgeD0iMCIgY2xhc3M9InRleHQtb3V0ZXItdHNwYW4iPjx0c3BhbiBmb250LXdlaWdodD0ibm9ybWFsIiBjbGFzcz0idGV4dC1pbm5lci10c3BhbiIgZm9udC1zdHlsZT0ibm9ybWFsIj5QREY8L3RzcGFuPjx0c3BhbiBmb250LXdlaWdodD0ibm9ybWFsIiBjbGFzcz0idGV4dC1pbm5lci10c3BhbiIgZm9udC1zdHlsZT0ibm9ybWFsIj4gR2VuZXJhdGlvbjwvdHNwYW4+PHRzcGFuIGZvbnQtd2VpZ2h0PSJub3JtYWwiIGNsYXNzPSJ0ZXh0LWlubmVyLXRzcGFuIiBmb250LXN0eWxlPSJub3JtYWwiPiBTZXJ2aWNlPC90c3Bhbj48L3RzcGFuPjwvdGV4dD48L2c+PC9nPjwvZz48ZyB0cmFuc2Zvcm09InRyYW5zbGF0ZSgyMDczLjI3NTAxNDg3NzMxOTMsIDY1MC4yMTY2NTk1NDU4OTg0KSIgaWQ9ImZsb3djaGFydC1QLTM2NyIgY2xhc3M9Im5vZGUgZGVmYXVsdCI+PHJlY3QgaGVpZ2h0PSI0OCIgd2lkdGg9IjI0MS40NDk5OTY5NDgyNDIyIiB5PSItMjQiIHg9Ii0xMjAuNzI0OTk4NDc0MTIxMSIgZGF0YS1ldD0ibm9kZSIgZGF0YS1pZD0iYWJjIiBzdHlsZT0iIiBjbGFzcz0iYmFzaWMgbGFiZWwtY29udGFpbmVyIj48L3JlY3Q+PGcgdHJhbnNmb3JtPSJ0cmFuc2xhdGUoMCwgLTkpIiBzdHlsZT0iIiBjbGFzcz0ibGFiZWwiPjxyZWN0PjwvcmVjdD48Zz48cmVjdCBzdHlsZT0ic3Ryb2tlOiBub25lIiBjbGFzcz0iYmFja2dyb3VuZCI+PC9yZWN0Pjx0ZXh0IHN0eWxlPSIiIHk9Ii0xMC4xIj48dHNwYW4gZHk9IjEuMWVtIiB5PSItMC4xZW0iIHg9IjAiIGNsYXNzPSJ0ZXh0LW91dGVyLXRzcGFuIj48dHNwYW4gZm9udC13ZWlnaHQ9Im5vcm1hbCIgY2xhc3M9InRleHQtaW5uZXItdHNwYW4iIGZvbnQtc3R5bGU9Im5vcm1hbCI+U2lnbmF0dXJlPC90c3Bhbj48dHNwYW4gZm9udC13ZWlnaHQ9Im5vcm1hbCIgY2xhc3M9InRleHQtaW5uZXItdHNwYW4iIGZvbnQtc3R5bGU9Im5vcm1hbCI+IFZlcmlmaWNhdGlvbjwvdHNwYW4+PHRzcGFuIGZvbnQtd2VpZ2h0PSJub3JtYWwiIGNsYXNzPSJ0ZXh0LWlubmVyLXRzcGFuIiBmb250LXN0eWxlPSJub3JtYWwiPiBBUEk8L3RzcGFuPjwvdHNwYW4+PC90ZXh0PjwvZz48L2c+PC9nPjxnIHRyYW5zZm9ybT0idHJhbnNsYXRlKDIzMzguNTY2Njc5MDAwODU0NSwgNjUwLjIxNjY1OTU0NTg5ODQpIiBpZD0iZmxvd2NoYXJ0LU1PRDEtMzY5IiBjbGFzcz0ibm9kZSBkZWZhdWx0Ij48cmVjdCBoZWlnaHQ9IjQ4IiB3aWR0aD0iMTg5LjEzMzMzMTI5ODgyODEyIiB5PSItMjQiIHg9Ii05NC41NjY2NjU2NDk0MTQwNiIgZGF0YS1ldD0ibm9kZSIgZGF0YS1pZD0iYWJjIiBzdHlsZT0iIiBjbGFzcz0iYmFzaWMgbGFiZWwtY29udGFpbmVyIj48L3JlY3Q+PGcgdHJhbnNmb3JtPSJ0cmFuc2xhdGUoMCwgLTkpIiBzdHlsZT0iIiBjbGFzcz0ibGFiZWwiPjxyZWN0PjwvcmVjdD48Zz48cmVjdCBzdHlsZT0ic3Ryb2tlOiBub25lIiBjbGFzcz0iYmFja2dyb3VuZCI+PC9yZWN0Pjx0ZXh0IHN0eWxlPSIiIHk9Ii0xMC4xIj48dHNwYW4gZHk9IjEuMWVtIiB5PSItMC4xZW0iIHg9IjAiIGNsYXNzPSJ0ZXh0LW91dGVyLXRzcGFuIj48dHNwYW4gZm9udC13ZWlnaHQ9Im5vcm1hbCIgY2xhc3M9InRleHQtaW5uZXItdHNwYW4iIGZvbnQtc3R5bGU9Im5vcm1hbCI+TGV2ZWw8L3RzcGFuPjx0c3BhbiBmb250LXdlaWdodD0ibm9ybWFsIiBjbGFzcz0idGV4dC1pbm5lci10c3BhbiIgZm9udC1zdHlsZT0ibm9ybWFsIj4gMTwvdHNwYW4+PHRzcGFuIGZvbnQtd2VpZ2h0PSJub3JtYWwiIGNsYXNzPSJ0ZXh0LWlubmVyLXRzcGFuIiBmb250LXN0eWxlPSJub3JtYWwiPiBNb2RlcmF0b3I8L3RzcGFuPjwvdHNwYW4+PC90ZXh0PjwvZz48L2c+PC9nPjxnIHRyYW5zZm9ybT0idHJhbnNsYXRlKDIyMTYuODI5MTc1OTQ5MDk2NywgNzcwLjIxNjY1OTU0NTg5ODQpIiBpZD0iZmxvd2NoYXJ0LU1PRDItMzcxIiBjbGFzcz0ibm9kZSBkZWZhdWx0Ij48cmVjdCBoZWlnaHQ9IjQ4IiB3aWR0aD0iMTg5LjEzMzMzMTI5ODgyODEyIiB5PSItMjQiIHg9Ii05NC41NjY2NjU2NDk0MTQwNiIgZGF0YS1ldD0ibm9kZSIgZGF0YS1pZD0iYWJjIiBzdHlsZT0iIiBjbGFzcz0iYmFzaWMgbGFiZWwtY29udGFpbmVyIj48L3JlY3Q+PGcgdHJhbnNmb3JtPSJ0cmFuc2xhdGUoMCwgLTkpIiBzdHlsZT0iIiBjbGFzcz0ibGFiZWwiPjxyZWN0PjwvcmVjdD48Zz48cmVjdCBzdHlsZT0ic3Ryb2tlOiBub25lIiBjbGFzcz0iYmFja2dyb3VuZCI+PC9yZWN0Pjx0ZXh0IHN0eWxlPSIiIHk9Ii0xMC4xIj48dHNwYW4gZHk9IjEuMWVtIiB5PSItMC4xZW0iIHg9IjAiIGNsYXNzPSJ0ZXh0LW91dGVyLXRzcGFuIj48dHNwYW4gZm9udC13ZWlnaHQ9Im5vcm1hbCIgY2xhc3M9InRleHQtaW5uZXItdHNwYW4iIGZvbnQtc3R5bGU9Im5vcm1hbCI+TGV2ZWw8L3RzcGFuPjx0c3BhbiBmb250LXdlaWdodD0ibm9ybWFsIiBjbGFzcz0idGV4dC1pbm5lci10c3BhbiIgZm9udC1zdHlsZT0ibm9ybWFsIj4gMjwvdHNwYW4+PHRzcGFuIGZvbnQtd2VpZ2h0PSJub3JtYWwiIGNsYXNzPSJ0ZXh0LWlubmVyLXRzcGFuIiBmb250LXN0eWxlPSJub3JtYWwiPiBNb2RlcmF0b3I8L3RzcGFuPjwvdHNwYW4+PC90ZXh0PjwvZz48L2c+PC9nPjxnIHRyYW5zZm9ybT0idHJhbnNsYXRlKDIxNTIuMDQ1ODQzMTI0Mzg5NiwgODkwLjIxNjY1OTU0NTg5ODQpIiBpZD0iZmxvd2NoYXJ0LU1PRDMtMzczIiBjbGFzcz0ibm9kZSBkZWZhdWx0Ij48cmVjdCBoZWlnaHQ9IjQ4IiB3aWR0aD0iMTg5LjEzMzMzMTI5ODgyODEyIiB5PSItMjQiIHg9Ii05NC41NjY2NjU2NDk0MTQwNiIgZGF0YS1ldD0ibm9kZSIgZGF0YS1pZD0iYWJjIiBzdHlsZT0iIiBjbGFzcz0iYmFzaWMgbGFiZWwtY29udGFpbmVyIj48L3JlY3Q+PGcgdHJhbnNmb3JtPSJ0cmFuc2xhdGUoMCwgLTkpIiBzdHlsZT0iIiBjbGFzcz0ibGFiZWwiPjxyZWN0PjwvcmVjdD48Zz48cmVjdCBzdHlsZT0ic3Ryb2tlOiBub25lIiBjbGFzcz0iYmFja2dyb3VuZCI+PC9yZWN0Pjx0ZXh0IHN0eWxlPSIiIHk9Ii0xMC4xIj48dHNwYW4gZHk9IjEuMWVtIiB5PSItMC4xZW0iIHg9IjAiIGNsYXNzPSJ0ZXh0LW91dGVyLXRzcGFuIj48dHNwYW4gZm9udC13ZWlnaHQ9Im5vcm1hbCIgY2xhc3M9InRleHQtaW5uZXItdHNwYW4iIGZvbnQtc3R5bGU9Im5vcm1hbCI+TGV2ZWw8L3RzcGFuPjx0c3BhbiBmb250LXdlaWdodD0ibm9ybWFsIiBjbGFzcz0idGV4dC1pbm5lci10c3BhbiIgZm9udC1zdHlsZT0ibm9ybWFsIj4gMzwvdHNwYW4+PHRzcGFuIGZvbnQtd2VpZ2h0PSJub3JtYWwiIGNsYXNzPSJ0ZXh0LWlubmVyLXRzcGFuIiBmb250LXN0eWxlPSJub3JtYWwiPiBNb2RlcmF0b3I8L3RzcGFuPjwvdHNwYW4+PC90ZXh0PjwvZz48L2c+PC9nPjxnIHRyYW5zZm9ybT0idHJhbnNsYXRlKDIwNTEuMTI1MDEzMzUxNDQwNCwgMTAxMC4yMTY2NTk1NDU4OTg0KSIgaWQ9ImZsb3djaGFydC1NT0Q0LTM3NSIgY2xhc3M9Im5vZGUgZGVmYXVsdCI+PHJlY3QgaGVpZ2h0PSI0OCIgd2lkdGg9IjE4OS4xMzMzMzEyOTg4MjgxMiIgeT0iLTI0IiB4PSItOTQuNTY2NjY1NjQ5NDE0MDYiIGRhdGEtZXQ9Im5vZGUiIGRhdGEtaWQ9ImFiYyIgc3R5bGU9IiIgY2xhc3M9ImJhc2ljIGxhYmVsLWNvbnRhaW5lciI+PC9yZWN0PjxnIHRyYW5zZm9ybT0idHJhbnNsYXRlKDAsIC05KSIgc3R5bGU9IiIgY2xhc3M9ImxhYmVsIj48cmVjdD48L3JlY3Q+PGc+PHJlY3Qgc3R5bGU9InN0cm9rZTogbm9uZSIgY2xhc3M9ImJhY2tncm91bmQiPjwvcmVjdD48dGV4dCBzdHlsZT0iIiB5PSItMTAuMSI+PHRzcGFuIGR5PSIxLjFlbSIgeT0iLTAuMWVtIiB4PSIwIiBjbGFzcz0idGV4dC1vdXRlci10c3BhbiI+PHRzcGFuIGZvbnQtd2VpZ2h0PSJub3JtYWwiIGNsYXNzPSJ0ZXh0LWlubmVyLXRzcGFuIiBmb250LXN0eWxlPSJub3JtYWwiPkxldmVsPC90c3Bhbj48dHNwYW4gZm9udC13ZWlnaHQ9Im5vcm1hbCIgY2xhc3M9InRleHQtaW5uZXItdHNwYW4iIGZvbnQtc3R5bGU9Im5vcm1hbCI+IDQ8L3RzcGFuPjx0c3BhbiBmb250LXdlaWdodD0ibm9ybWFsIiBjbGFzcz0idGV4dC1pbm5lci10c3BhbiIgZm9udC1zdHlsZT0ibm9ybWFsIj4gTW9kZXJhdG9yPC90c3Bhbj48L3RzcGFuPjwvdGV4dD48L2c+PC9nPjwvZz48ZyB0cmFuc2Zvcm09InRyYW5zbGF0ZSgyNzIwLjQ3NTAwNDE5NjE2NywgMTAxMC4yMTY2NTk1NDU4OTg0KSIgaWQ9ImZsb3djaGFydC1RLTM4MiIgY2xhc3M9Im5vZGUgZGVmYXVsdCI+PHJlY3QgaGVpZ2h0PSI0OCIgd2lkdGg9IjE2Mi4yODMzMzI4MjQ3MDcwMyIgeT0iLTI0IiB4PSItODEuMTQxNjY2NDEyMzUzNTIiIGRhdGEtZXQ9Im5vZGUiIGRhdGEtaWQ9ImFiYyIgc3R5bGU9IiIgY2xhc3M9ImJhc2ljIGxhYmVsLWNvbnRhaW5lciI+PC9yZWN0PjxnIHRyYW5zZm9ybT0idHJhbnNsYXRlKDAsIC05KSIgc3R5bGU9IiIgY2xhc3M9ImxhYmVsIj48cmVjdD48L3JlY3Q+PGc+PHJlY3Qgc3R5bGU9InN0cm9rZTogbm9uZSIgY2xhc3M9ImJhY2tncm91bmQiPjwvcmVjdD48dGV4dCBzdHlsZT0iIiB5PSItMTAuMSI+PHRzcGFuIGR5PSIxLjFlbSIgeT0iLTAuMWVtIiB4PSIwIiBjbGFzcz0idGV4dC1vdXRlci10c3BhbiI+PHRzcGFuIGZvbnQtd2VpZ2h0PSJub3JtYWwiIGNsYXNzPSJ0ZXh0LWlubmVyLXRzcGFuIiBmb250LXN0eWxlPSJub3JtYWwiPkFkbWluPC90c3Bhbj48dHNwYW4gZm9udC13ZWlnaHQ9Im5vcm1hbCIgY2xhc3M9InRleHQtaW5uZXItdHNwYW4iIGZvbnQtc3R5bGU9Im5vcm1hbCI+IE1vZHVsZTwvdHNwYW4+PC90c3Bhbj48L3RleHQ+PC9nPjwvZz48L2c+PGcgdHJhbnNmb3JtPSJ0cmFuc2xhdGUoMjg1MS43MzMzMzU0OTQ5OTUsIDUzMC4yMTY2NTk1NDU4OTg0KSIgaWQ9ImZsb3djaGFydC1SLTM5MCIgY2xhc3M9Im5vZGUgZGVmYXVsdCI+PHJlY3QgaGVpZ2h0PSI0OCIgd2lkdGg9IjE5Mi41MTY2NjI1OTc2NTYyNSIgeT0iLTI0IiB4PSItOTYuMjU4MzMxMjk4ODI4MTIiIGRhdGEtZXQ9Im5vZGUiIGRhdGEtaWQ9ImFiYyIgc3R5bGU9IiIgY2xhc3M9ImJhc2ljIGxhYmVsLWNvbnRhaW5lciI+PC9yZWN0PjxnIHRyYW5zZm9ybT0idHJhbnNsYXRlKDAsIC05KSIgc3R5bGU9IiIgY2xhc3M9ImxhYmVsIj48cmVjdD48L3JlY3Q+PGc+PHJlY3Qgc3R5bGU9InN0cm9rZTogbm9uZSIgY2xhc3M9ImJhY2tncm91bmQiPjwvcmVjdD48dGV4dCBzdHlsZT0iIiB5PSItMTAuMSI+PHRzcGFuIGR5PSIxLjFlbSIgeT0iLTAuMWVtIiB4PSIwIiBjbGFzcz0idGV4dC1vdXRlci10c3BhbiI+PHRzcGFuIGZvbnQtd2VpZ2h0PSJub3JtYWwiIGNsYXNzPSJ0ZXh0LWlubmVyLXRzcGFuIiBmb250LXN0eWxlPSJub3JtYWwiPlNlcnZlci1zaWRlPC90c3Bhbj48dHNwYW4gZm9udC13ZWlnaHQ9Im5vcm1hbCIgY2xhc3M9InRleHQtaW5uZXItdHNwYW4iIGZvbnQtc3R5bGU9Im5vcm1hbCI+IENhY2hlPC90c3Bhbj48L3RzcGFuPjwvdGV4dD48L2c+PC9nPjwvZz48L2c+PC9nPjwvZz48L3N2Zz4=;" vertex="1" parent="1">
            <mxGeometry x="130" y="370" width="2984.245849609375" height="1187.011962890625" as="geometry" />
          </mxCell>
        </UserObject>
      </root>
    </mxGraphModel>
  </diagram>
</mxfile>
